<svg width="25" height="24" viewBox="0 0 25 24" fill="none" xmlns="http://www.w3.org/2000/svg">
<g id="SVG">
<path id="Vector" fill-rule="evenodd" clip-rule="evenodd" d="M3.53896 4.99807C3.53896 4.29829 3.53896 3.94841 3.67515 3.68113C3.79494 3.44602 3.98609 3.25487 4.22119 3.13508C4.48847 2.9989 4.83835 2.9989 5.53813 2.9989C6.23791 2.9989 6.58779 2.9989 6.85507 3.13508C7.09017 3.25487 7.28132 3.44602 7.40111 3.68113C7.5373 3.94841 7.5373 4.29829 7.5373 4.99807C7.5373 5.69785 7.5373 6.04773 7.40111 6.31501C7.28132 6.55011 7.09017 6.74126 6.85507 6.86105C6.58779 6.99723 6.23791 6.99723 5.53813 6.99723C4.83835 6.99723 4.48847 6.99723 4.22119 6.86105C3.98609 6.74126 3.79494 6.55011 3.67515 6.31501C3.53896 6.04773 3.53896 5.69785 3.53896 4.99807ZM3.53896 11.9952C3.53896 11.2953 3.53896 10.9455 3.67515 10.6782C3.79494 10.4431 3.98609 10.252 4.22119 10.1321C4.48847 9.99599 4.83835 9.99599 5.53813 9.99599C6.23791 9.99599 6.58779 9.99599 6.85507 10.1321C7.09017 10.252 7.28132 10.4431 7.40111 10.6782C7.5373 10.9455 7.5373 11.2953 7.5373 11.9952C7.5373 12.695 7.5373 13.0448 7.40111 13.3121C7.28132 13.5472 7.09017 13.7383 6.85507 13.8582C6.58779 13.9943 6.23791 13.9943 5.53813 13.9943C4.83835 13.9943 4.48847 13.9943 4.22119 13.8582C3.98609 13.7383 3.79494 13.5472 3.67515 13.3121C3.53896 13.0448 3.53896 12.695 3.53896 11.9952ZM3.67515 17.6753C3.53896 17.9426 3.53896 18.2924 3.53896 18.9922C3.53896 19.692 3.53896 20.0419 3.67515 20.3092C3.79494 20.5443 3.98609 20.7354 4.22119 20.8553C4.48847 20.9914 4.83835 20.9914 5.53813 20.9914C6.23791 20.9914 6.58779 20.9914 6.85507 20.8553C7.09017 20.7354 7.28132 20.5443 7.40111 20.3092C7.5373 20.0419 7.5373 19.692 7.5373 18.9922C7.5373 18.2924 7.5373 17.9426 7.40111 17.6753C7.28132 17.4402 7.09017 17.2491 6.85507 17.1292C6.58779 16.9931 6.23791 16.9931 5.53813 16.9931C4.83835 16.9931 4.48847 16.9931 4.22119 17.1292C3.98609 17.2491 3.79494 17.4402 3.67515 17.6753ZM10.536 4.99807C10.536 4.29829 10.536 3.94841 10.6722 3.68113C10.792 3.44602 10.9832 3.25487 11.2183 3.13508C11.4856 2.9989 11.8354 2.9989 12.5352 2.9989C13.235 2.9989 13.5849 2.9989 13.8522 3.13508C14.0873 3.25487 14.2784 3.44602 14.3982 3.68113C14.5344 3.94841 14.5344 4.29829 14.5344 4.99807C14.5344 5.69785 14.5344 6.04773 14.3982 6.31501C14.2784 6.55011 14.0873 6.74126 13.8522 6.86105C13.5849 6.99723 13.235 6.99723 12.5352 6.99723C11.8354 6.99723 11.4856 6.99723 11.2183 6.86105C10.9832 6.74126 10.792 6.55011 10.6722 6.31501C10.536 6.04773 10.536 5.69785 10.536 4.99807ZM10.6722 10.6782C10.536 10.9455 10.536 11.2953 10.536 11.9952C10.536 12.695 10.536 13.0448 10.6722 13.3121C10.792 13.5472 10.9832 13.7383 11.2183 13.8582C11.4856 13.9943 11.8354 13.9943 12.5352 13.9943C13.235 13.9943 13.5849 13.9943 13.8522 13.8582C14.0873 13.7383 14.2784 13.5472 14.3982 13.3121C14.5344 13.0448 14.5344 12.695 14.5344 11.9952C14.5344 11.2953 14.5344 10.9455 14.3982 10.6782C14.2784 10.4431 14.0873 10.252 13.8522 10.1321C13.5849 9.99599 13.235 9.99599 12.5352 9.99599C11.8354 9.99599 11.4856 9.99599 11.2183 10.1321C10.9832 10.252 10.792 10.4431 10.6722 10.6782ZM10.536 18.9922C10.536 18.2924 10.536 17.9426 10.6722 17.6753C10.792 17.4402 10.9832 17.2491 11.2183 17.1292C11.4856 16.9931 11.8354 16.9931 12.5352 16.9931C13.235 16.9931 13.5849 16.9931 13.8522 17.1292C14.0873 17.2491 14.2784 17.4402 14.3982 17.6753C14.5344 17.9426 14.5344 18.2924 14.5344 18.9922C14.5344 19.692 14.5344 20.0419 14.3982 20.3092C14.2784 20.5443 14.0873 20.7354 13.8522 20.8553C13.5849 20.9914 13.235 20.9914 12.5352 20.9914C11.8354 20.9914 11.4856 20.9914 11.2183 20.8553C10.9832 20.7354 10.792 20.5443 10.6722 20.3092C10.536 20.0419 10.536 19.692 10.536 18.9922ZM17.6693 3.68113C17.5331 3.94841 17.5331 4.29829 17.5331 4.99807C17.5331 5.69785 17.5331 6.04773 17.6693 6.31501C17.7891 6.55011 17.9802 6.74126 18.2153 6.86105C18.4826 6.99723 18.8325 6.99723 19.5323 6.99723C20.2321 6.99723 20.582 6.99723 20.8492 6.86105C21.0843 6.74126 21.2755 6.55011 21.3953 6.31501C21.5315 6.04773 21.5315 5.69785 21.5315 4.99807C21.5315 4.29829 21.5315 3.94841 21.3953 3.68113C21.2755 3.44602 21.0843 3.25487 20.8492 3.13508C20.582 2.9989 20.2321 2.9989 19.5323 2.9989C18.8325 2.9989 18.4826 2.9989 18.2153 3.13508C17.9802 3.25487 17.7891 3.44602 17.6693 3.68113ZM17.5331 11.9952C17.5331 11.2953 17.5331 10.9455 17.6693 10.6782C17.7891 10.4431 17.9802 10.252 18.2153 10.1321C18.4826 9.99599 18.8325 9.99599 19.5323 9.99599C20.2321 9.99599 20.582 9.99599 20.8492 10.1321C21.0843 10.252 21.2755 10.4431 21.3953 10.6782C21.5315 10.9455 21.5315 11.2953 21.5315 11.9952C21.5315 12.695 21.5315 13.0448 21.3953 13.3121C21.2755 13.5472 21.0843 13.7383 20.8492 13.8582C20.582 13.9943 20.2321 13.9943 19.5323 13.9943C18.8325 13.9943 18.4826 13.9943 18.2153 13.8582C17.9802 13.7383 17.7891 13.5472 17.6693 13.3121C17.5331 13.0448 17.5331 12.695 17.5331 11.9952ZM17.6693 17.6753C17.5331 17.9426 17.5331 18.2924 17.5331 18.9922C17.5331 19.692 17.5331 20.0419 17.6693 20.3092C17.7891 20.5443 17.9802 20.7354 18.2153 20.8553C18.4826 20.9914 18.8325 20.9914 19.5323 20.9914C20.2321 20.9914 20.582 20.9914 20.8492 20.8553C21.0843 20.7354 21.2755 20.5443 21.3953 20.3092C21.5315 20.0419 21.5315 19.692 21.5315 18.9922C21.5315 18.2924 21.5315 17.9426 21.3953 17.6753C21.2755 17.4402 21.0843 17.2491 20.8492 17.1292C20.582 16.9931 20.2321 16.9931 19.5323 16.9931C18.8325 16.9931 18.4826 16.9931 18.2153 17.1292C17.9802 17.2491 17.7891 17.4402 17.6693 17.6753Z" fill="#939393"/>
</g>
</svg>
