<svg width="25" height="24" viewBox="0 0 25 24" fill="none" xmlns="http://www.w3.org/2000/svg">
<g id="SVG">
<path id="Vector" fill-rule="evenodd" clip-rule="evenodd" d="M17.2031 4.09836C17.6364 4.00162 18.0732 3.92159 18.5126 3.85846C18.8124 3.81848 18.9224 3.84846 18.9724 3.85846C19.1723 3.92843 19.3522 4.06837 19.4622 4.25829C19.4822 4.29828 19.5321 4.39824 19.5621 4.69811C19.5821 4.99799 19.5821 5.39782 19.5821 6.01756L9.38637 8.13668V7.5969C9.38637 7.1271 9.38637 6.81723 9.40637 6.57733C9.41636 6.34742 9.44635 6.24746 9.47634 6.17749C9.5563 5.99757 9.68625 5.84763 9.85618 5.72768C9.90616 5.6877 9.99612 5.63772 10.216 5.57774C10.4459 5.50777 10.7458 5.4478 11.2156 5.34784L17.2031 4.09836ZM7.58712 15.0938H7.38721C5.58796 15.0938 4.26851 15.5436 3.36888 16.3033C2.97047 16.6337 2.6494 17.0476 2.42833 17.5156C2.20726 17.9837 2.09157 18.4945 2.08942 19.0121C2.08942 19.9082 2.44537 20.7676 3.07898 21.4012C3.71259 22.0348 4.57195 22.3907 5.46801 22.3907C6.38762 22.3907 7.4072 22.0109 8.16688 21.1113C8.93656 20.2116 9.38637 18.8822 9.38637 17.0929V9.97591L19.5821 7.85679V13.0946H19.3822C17.583 13.0946 16.2635 13.5444 15.3639 14.3041C14.9655 14.6346 14.6444 15.0484 14.4233 15.5165C14.2023 15.9845 14.0866 16.4954 14.0844 17.013C14.0844 17.909 14.4404 18.7684 15.074 19.402C15.7076 20.0356 16.5669 20.3916 17.463 20.3916C18.3826 20.3916 19.4022 20.0117 20.1619 19.1121C20.9316 18.2125 21.3814 16.883 21.3814 15.0938V5.99757C21.3814 5.42781 21.3814 4.93801 21.3514 4.54817C21.3301 4.12782 21.2139 3.71774 21.0115 3.34867C20.6854 2.78609 20.1672 2.36014 19.5521 2.14917C19.1471 2.02816 18.7198 2.00082 18.3027 2.06921C17.9028 2.11919 17.433 2.21914 16.8733 2.3291L16.8333 2.33909L10.8458 3.58857H10.8158C10.396 3.68853 10.0161 3.7585 9.71624 3.84846C9.40637 3.93843 9.0965 4.04838 8.81661 4.2483C8.3768 4.56816 8.03694 4.98799 7.82702 5.46779C7.68708 5.78766 7.62711 6.10752 7.60712 6.44738C7.58712 6.74726 7.58712 7.1271 7.58712 7.56691V7.5969V15.0938ZM16.5334 15.6835C16.0536 16.0834 15.8837 16.5832 15.8837 17.023C15.8837 17.8826 16.5834 18.5923 17.453 18.5923C17.8928 18.5923 18.3926 18.4224 18.7925 17.9426C19.2023 17.4728 19.5821 16.6031 19.5821 15.0938V14.8939H19.3822C17.8828 14.8939 17.0032 15.2737 16.5334 15.6835ZM3.88867 19.0221C3.88867 18.5823 4.0586 18.0825 4.5384 17.6827C5.0082 17.2729 5.87784 16.893 7.38721 16.893H7.58712V17.0929C7.58712 18.5923 7.20728 19.472 6.79745 19.9418C6.39762 20.4216 5.89783 20.5915 5.46801 20.5915C4.59837 20.5915 3.88867 19.8918 3.88867 19.0121V19.0221Z" fill="#939393"/>
</g>
</svg>
