<svg width="13" height="9" viewBox="0 0 13 9" fill="none" xmlns="http://www.w3.org/2000/svg">
<g id="SVG">
<path id="Vector" fill-rule="evenodd" clip-rule="evenodd" d="M2.66462 2.95103C2.78515 2.79354 2.96309 2.69036 3.15944 2.66413C3.35578 2.6379 3.55449 2.69076 3.71199 2.81111L6.49502 4.94984L9.28802 2.80112C9.36461 2.72952 9.45535 2.67484 9.55437 2.6406C9.65339 2.60637 9.75848 2.59336 9.86284 2.6024C9.9672 2.61144 10.0685 2.64233 10.1602 2.69309C10.2519 2.74384 10.3319 2.81332 10.3951 2.89702C10.4583 2.98073 10.5032 3.07679 10.527 3.179C10.5508 3.28121 10.5529 3.38728 10.5331 3.49035C10.5134 3.59342 10.4723 3.69119 10.4124 3.77733C10.3526 3.86347 10.2754 3.93607 10.1858 3.99041L6.95387 6.48892C6.68454 6.6888 6.30549 6.6888 6.03617 6.48892L2.80427 4.0004C2.6486 3.87818 2.54758 3.69917 2.52328 3.50253C2.49898 3.30588 2.55338 3.1076 2.67459 2.95103H2.66462Z" fill="#656565"/>
</g>
</svg>
