<svg width="25" height="24" viewBox="0 0 25 24" fill="none" xmlns="http://www.w3.org/2000/svg">
<g id="SVG">
<path id="Vector" d="M12.4851 2.09924C16.5035 2.09924 19.3823 5.37788 19.3823 9.62611V11.2254C19.3823 11.4553 19.5822 11.7552 20.102 12.305L20.3718 12.5749C21.4514 13.6744 21.8812 14.3042 21.8812 15.3237C21.8812 15.7635 21.8312 16.1134 21.6113 16.5232C21.1615 17.4029 20.1919 17.8927 18.7425 17.8927H16.8433C16.2036 20.2217 14.7042 21.4912 12.4851 21.4912C10.2361 21.4912 8.7367 20.1917 8.11695 17.8227L8.13695 17.8927H6.22774C4.72837 17.8927 3.75877 17.3929 3.32895 16.4832C3.12903 16.0834 3.08905 15.7635 3.08905 15.3237C3.08905 14.3042 3.51887 13.6744 4.59842 12.5749L4.86831 12.305C5.39809 11.7552 5.58801 11.4553 5.58801 11.2254V9.62611C5.58801 5.37788 8.4768 2.09924 12.4851 2.09924ZM14.9541 17.8927H10.0162C10.476 19.1421 11.2656 19.6919 12.4851 19.6919C13.7046 19.6919 14.4943 19.1421 14.9541 17.8927ZM12.4851 3.89849C9.52637 3.89849 7.38726 6.32748 7.38726 9.62611V11.2254C7.38726 12.0751 6.99742 12.6848 6.15777 13.5545L5.87789 13.8443C5.1282 14.594 4.8883 14.9539 4.8883 15.3237C4.8883 15.5137 4.8983 15.6136 4.94828 15.7036C5.04823 15.9235 5.3781 16.0934 6.22774 16.0934H18.7425C19.5622 16.0934 19.902 15.9235 20.022 15.6936C20.072 15.5936 20.082 15.4937 20.082 15.3237C20.082 14.9539 19.8421 14.594 19.0924 13.8443L18.8125 13.5545C17.9728 12.6848 17.583 12.0751 17.583 11.2254V9.62611C17.583 6.32748 15.4539 3.89849 12.4851 3.89849Z" fill="#939393"/>
</g>
</svg>
