<svg width="17" height="16" viewBox="0 0 17 16" fill="none" xmlns="http://www.w3.org/2000/svg">
<g clip-path="url(#clip0_1_2468)">
<path d="M6.97591 0.98938C7.99924 0.98913 9.00233 1.27456 9.87223 1.81354C10.7421 2.35252 11.4443 3.12365 11.8996 4.04009C12.355 4.95653 12.5455 5.98189 12.4497 7.00073C12.3538 8.01957 11.9754 8.99142 11.3572 9.80686L15.2497 13.7044C15.3862 13.8459 15.4617 14.0352 15.4599 14.2317C15.4581 14.4283 15.3791 14.6162 15.2401 14.7551C15.1011 14.894 14.913 14.9728 14.7165 14.9744C14.52 14.976 14.3307 14.9004 14.1894 14.7638L10.2968 10.8662C9.60183 11.393 8.79145 11.747 7.93264 11.8987C7.07382 12.0504 6.19123 11.9956 5.35779 11.7388C4.52434 11.482 3.76397 11.0305 3.13949 10.4218C2.51501 9.81298 2.04436 9.06434 1.76641 8.2377C1.48847 7.41106 1.41122 6.53015 1.54103 5.66776C1.67085 4.80536 2.00402 3.98623 2.513 3.27805C3.02198 2.56987 3.69217 1.99296 4.46819 1.595C5.24421 1.19704 6.10379 0.989452 6.97591 0.98938ZM6.97591 2.48844C5.9157 2.48844 4.89892 2.90961 4.14925 3.65928C3.39957 4.40896 2.97841 5.42574 2.97841 6.48594C2.97841 7.54614 3.39957 8.56292 4.14925 9.3126C4.89892 10.0623 5.9157 10.4834 6.97591 10.4834C8.03611 10.4834 9.05289 10.0623 9.80257 9.3126C10.5522 8.56292 10.9734 7.54614 10.9734 6.48594C10.9734 5.42574 10.5522 4.40896 9.80257 3.65928C9.05289 2.90961 8.03611 2.48844 6.97591 2.48844Z" fill="#939393"/>
</g>
<defs>
<clipPath id="clip0_1_2468">
<rect width="15.99" height="15.99" fill="white" transform="translate(0.47998 -0.0100098)"/>
</clipPath>
</defs>
</svg>
