<svg width="21" height="20" viewBox="0 0 21 20" fill="none" xmlns="http://www.w3.org/2000/svg">
<g id="SVG">
<path id="Vector" fill-rule="evenodd" clip-rule="evenodd" d="M10.5 2.98999C10.6989 2.98999 10.8897 3.06901 11.0303 3.20966C11.171 3.35031 11.25 3.54108 11.25 3.73999V9.23999H16.75C16.9489 9.23999 17.1397 9.31901 17.2803 9.45966C17.421 9.60031 17.5 9.79108 17.5 9.98999C17.5 10.1889 17.421 10.3797 17.2803 10.5203C17.1397 10.661 16.9489 10.74 16.75 10.74H11.25V16.24C11.25 16.4389 11.171 16.6297 11.0303 16.7703C10.8897 16.911 10.6989 16.99 10.5 16.99C10.3011 16.99 10.1103 16.911 9.96965 16.7703C9.829 16.6297 9.74998 16.4389 9.74998 16.24V10.74H4.24998C4.05107 10.74 3.8603 10.661 3.71965 10.5203C3.579 10.3797 3.49998 10.1889 3.49998 9.98999C3.49998 9.79108 3.579 9.60031 3.71965 9.45966C3.8603 9.31901 4.05107 9.23999 4.24998 9.23999H9.74998V3.73999C9.74998 3.54108 9.829 3.35031 9.96965 3.20966C10.1103 3.06901 10.3011 2.98999 10.5 2.98999Z" fill="#828282"/>
</g>
</svg>
