<svg width="21" height="20" viewBox="0 0 21 20" fill="none" xmlns="http://www.w3.org/2000/svg">
<g id="SVG">
<path id="Vector" fill-rule="evenodd" clip-rule="evenodd" d="M8.00998 7.73999C7.74476 7.73999 7.49041 7.63463 7.30287 7.4471C7.11534 7.25956 7.00998 7.00521 7.00998 6.73999C7.00998 6.47477 7.11534 6.22042 7.30287 6.03288C7.49041 5.84535 7.74476 5.73999 8.00998 5.73999C8.2752 5.73999 8.52955 5.84535 8.71709 6.03288C8.90462 6.22042 9.00998 6.47477 9.00998 6.73999C9.00998 7.00521 8.90462 7.25956 8.71709 7.4471C8.52955 7.63463 8.2752 7.73999 8.00998 7.73999ZM5.61998 5.98999C5.77423 5.47467 6.09058 5.02285 6.52205 4.70163C6.95351 4.3804 7.47707 4.20691 8.01498 4.20691C8.55289 4.20691 9.07645 4.3804 9.50791 4.70163C9.93937 5.02285 10.2557 5.47467 10.41 5.98999H16.77C16.9689 5.98999 17.1597 6.06901 17.3003 6.20966C17.441 6.35031 17.52 6.54108 17.52 6.73999C17.52 6.9389 17.441 7.12967 17.3003 7.27032C17.1597 7.41097 16.9689 7.48999 16.77 7.48999H10.4C10.243 8.00141 9.92619 8.449 9.49599 8.76699C9.06579 9.08497 8.54494 9.25657 8.00998 9.25657C7.47502 9.25657 6.95417 9.08497 6.52397 8.76699C6.09377 8.449 5.77692 8.00141 5.61998 7.48999H4.25998C4.06107 7.48999 3.8703 7.41097 3.72965 7.27032C3.589 7.12967 3.50998 6.9389 3.50998 6.73999C3.50998 6.54108 3.589 6.35031 3.72965 6.20966C3.8703 6.06901 4.06107 5.98999 4.25998 5.98999H5.61998ZM13.01 14.24C13.2752 14.24 13.5295 14.1346 13.7171 13.9471C13.9046 13.7596 14.01 13.5052 14.01 13.24C14.01 12.9748 13.9046 12.7204 13.7171 12.5329C13.5295 12.3453 13.2752 12.24 13.01 12.24C12.7448 12.24 12.4904 12.3453 12.3029 12.5329C12.1153 12.7204 12.01 12.9748 12.01 13.24C12.01 13.5052 12.1153 13.7596 12.3029 13.9471C12.4904 14.1346 12.7448 14.24 13.01 14.24ZM15.4 12.49C15.243 11.9786 14.9262 11.531 14.496 11.213C14.0658 10.895 13.5449 10.7234 13.01 10.7234C12.475 10.7234 11.9542 10.895 11.524 11.213C11.0938 11.531 10.7769 11.9786 10.62 12.49H4.25998C4.06107 12.49 3.8703 12.569 3.72965 12.7097C3.589 12.8503 3.50998 13.0411 3.50998 13.24C3.50998 13.4389 3.589 13.6297 3.72965 13.7703C3.8703 13.911 4.06107 13.99 4.25998 13.99H10.62C10.7769 14.5014 11.0938 14.949 11.524 15.267C11.9542 15.585 12.475 15.7566 13.01 15.7566C13.5449 15.7566 14.0658 15.585 14.496 15.267C14.9262 14.949 15.243 14.5014 15.4 13.99H16.76C16.9589 13.99 17.1497 13.911 17.2903 13.7703C17.431 13.6297 17.51 13.4389 17.51 13.24C17.51 13.0411 17.431 12.8503 17.2903 12.7097C17.1497 12.569 16.9589 12.49 16.76 12.49H15.4Z" fill="#828282"/>
</g>
</svg>
