<svg width="20" height="21" viewBox="0 0 20 21" fill="none" xmlns="http://www.w3.org/2000/svg">
<g id="SVG">
<path id="Vector" fill-rule="evenodd" clip-rule="evenodd" d="M16.8 4.9C16.6876 4.87532 16.5713 4.87323 16.458 4.89383C16.3447 4.91442 16.2366 4.95731 16.14 5.02L16.13 5.03L12.5 7.33V13.54L16.14 15.84C16.3094 15.9489 16.5111 15.9964 16.7113 15.9745C16.9114 15.9527 17.0981 15.8628 17.24 15.72C17.4132 15.544 17.5102 15.3069 17.51 15.06V5.82C17.5126 5.64017 17.464 5.46332 17.37 5.31C17.2437 5.10774 17.0423 4.96388 16.81 4.91L16.8 4.9ZM11 13.48V7.4H5.48003C4.66003 7.4 3.92003 7.74 3.38003 8.29C2.8228 8.86634 2.514 9.63834 2.52003 10.44C2.52003 11.28 2.85003 12.04 3.39003 12.59C3.66212 12.8686 3.98719 13.09 4.34612 13.2412C4.70505 13.3923 5.09058 13.4701 5.48003 13.47H11V13.48ZM11.96 5.91L15.32 3.78C15.5858 3.60579 15.8839 3.4868 16.1965 3.43011C16.5092 3.37342 16.83 3.38018 17.14 3.45C17.4482 3.52074 17.7394 3.65169 17.9968 3.83531C18.2542 4.01894 18.4728 4.25162 18.64 4.52C18.88 4.92 19.01 5.37 19.01 5.82V15.07C19.01 15.73 18.75 16.34 18.31 16.78C17.9271 17.1724 17.4204 17.4206 16.8756 17.4825C16.3308 17.5445 15.7813 17.4164 15.32 17.12L11.95 14.98H9.65003L9.84003 16.02C9.89766 16.3408 9.89018 16.6699 9.81803 16.9877C9.74587 17.3055 9.61052 17.6056 9.42003 17.87C9.03449 18.4033 8.45565 18.7646 7.80723 18.8767C7.15881 18.9888 6.49226 18.8428 5.95003 18.47C5.68178 18.2862 5.45263 18.051 5.27584 17.7781C5.09904 17.5052 4.97811 17.1999 4.92003 16.88L4.56003 14.88C3.70896 14.6984 2.93003 14.2707 2.32003 13.65C1.48386 12.7951 1.017 11.6459 1.02003 10.45C1.02003 9.2 1.52003 8.07 2.32003 7.25C2.73079 6.82721 3.22196 6.49086 3.76465 6.26073C4.30734 6.03061 4.89057 5.91135 5.48003 5.91H11.96ZM6.10003 14.97L6.40003 16.61C6.42252 16.7346 6.46944 16.8536 6.53809 16.96C6.60674 17.0664 6.69577 17.1581 6.80003 17.23C7.01881 17.3798 7.28733 17.4385 7.54868 17.3937C7.81002 17.3489 8.04365 17.2041 8.20003 16.99C8.27307 16.8885 8.32488 16.7733 8.35237 16.6513C8.37986 16.5293 8.38247 16.403 8.36003 16.28L8.13003 14.97H6.10003Z" fill="#71AAEB"/>
</g>
</svg>
