<svg width="20" height="21" viewBox="0 0 20 21" fill="none" xmlns="http://www.w3.org/2000/svg">
<g id="SVG">
<path id="Vector" fill-rule="evenodd" clip-rule="evenodd" d="M9.32 2.43994H10.68C11.64 2.43994 12.4 2.43994 13.01 2.48994C13.64 2.53994 14.18 2.64994 14.68 2.89994C15.4811 3.30765 16.1323 3.95885 16.54 4.75994C16.79 5.25994 16.9 5.79994 16.95 6.42994C17 7.03994 17 7.80994 17 8.75994V15.3299C17 16.0999 17 16.7299 16.96 17.2299C16.91 17.7099 16.82 18.2099 16.5 18.5999C16.2874 18.8643 16.0177 19.0772 15.7112 19.2227C15.4047 19.3682 15.0693 19.4424 14.73 19.4399C14.23 19.4399 13.79 19.1899 13.39 18.9199C12.98 18.6499 12.49 18.2399 11.89 17.7499L11.04 17.0599C10.77 16.8399 10.59 16.6899 10.44 16.5899C10.3678 16.5335 10.2867 16.4896 10.2 16.4599C10.0691 16.4237 9.93087 16.4237 9.8 16.4599C9.7133 16.4896 9.63218 16.5335 9.56 16.5899C9.41 16.6899 9.23 16.8399 8.96 17.0599L8.11 17.7599C7.51 18.2399 7.02 18.6499 6.61 18.9199C6.21 19.1899 5.77 19.4299 5.27 19.4399C4.93073 19.4424 4.59529 19.3682 4.28877 19.2227C3.98226 19.0772 3.71261 18.8643 3.5 18.5999C3.18 18.1999 3.09 17.7099 3.04 17.2299C3 16.7299 3 16.0999 3 15.3299V8.75994C3 7.79994 3 7.03994 3.05 6.42994C3.1 5.79994 3.21 5.25994 3.46 4.75994C3.8677 3.95885 4.51891 3.30765 5.32 2.89994C5.82 2.64994 6.36 2.53994 6.99 2.48994C7.6 2.43994 8.37 2.43994 9.32 2.43994ZM7.12 3.98994C6.58 4.02994 6.25 4.10994 6 4.23994C5.48349 4.50343 5.06349 4.92344 4.8 5.43994C4.67 5.68994 4.59 6.01994 4.55 6.54994C4.5 7.09994 4.5 7.79994 4.5 8.78994V15.2899C4.5 16.1099 4.5 16.6799 4.54 17.0899C4.58 17.5199 4.64 17.6299 4.67 17.6599C4.74087 17.7481 4.83075 17.819 4.93292 17.8675C5.03509 17.916 5.14691 17.9408 5.26 17.9399C5.29 17.9399 5.42 17.9199 5.77 17.6799C6.12 17.4499 6.56 17.0799 7.19 16.5699L8.03 15.8899C8.28 15.6799 8.5 15.4899 8.7 15.3599C8.9 15.2099 9.13 15.0899 9.4 15.0099C9.79262 14.9013 10.2074 14.9013 10.6 15.0099C10.87 15.0899 11.1 15.2099 11.3 15.3599C11.5 15.4999 11.72 15.6799 11.97 15.8899L12.81 16.5699C13.44 17.0899 13.88 17.4499 14.23 17.6699C14.58 17.9199 14.71 17.9399 14.74 17.9399C14.8548 17.9423 14.9685 17.9183 15.0726 17.8697C15.1766 17.8212 15.2681 17.7494 15.34 17.6599C15.35 17.6299 15.42 17.5199 15.46 17.0899C15.5 16.6799 15.5 16.1099 15.5 15.2899V8.78994C15.5 7.78994 15.5 7.08994 15.45 6.54994C15.4392 6.17048 15.3543 5.79679 15.2 5.44994C14.9382 4.92972 14.518 4.50604 14 4.23994C13.6501 4.08438 13.2728 3.99942 12.89 3.98994C12.34 3.93994 11.64 3.93994 10.65 3.93994H9.35C8.35 3.93994 7.65 3.93994 7.11 3.98994H7.12Z" fill="#71AAEB"/>
</g>
</svg>
