<svg width="20" height="20" viewBox="0 0 20 20" fill="none" xmlns="http://www.w3.org/2000/svg">
<g id="SVG" clip-path="url(#clip0_1_2302)">
<g id="phone_outline_20__Icons">
<g id="phone_outline_20__Icons-20/phone_outline_20">
<g id="phone_outline_20__phone_outline_20">
<path id="phone_outline_20__Icon-Color" d="M7.78003 2.69005L8.48003 3.52005C9.13819 4.31861 9.47259 5.33516 9.41703 6.36849C9.36147 7.40183 8.92002 8.37666 8.18003 9.10005L7.88003 9.40005C8.11003 9.78005 8.52003 10.2801 9.11003 10.8801C9.64003 11.4101 10.1 11.7801 10.46 12.0201L10.59 12.1101L10.89 11.8101C11.6146 11.0721 12.5891 10.6321 13.6218 10.5766C14.6545 10.5211 15.6705 10.8541 16.47 11.5101L17.3 12.2101C17.6468 12.5077 17.9309 12.8713 18.136 13.2797C18.341 13.688 18.4629 14.1331 18.4945 14.589C18.5262 15.0448 18.4669 15.5025 18.3202 15.9352C18.1735 16.368 17.9423 16.7674 17.64 17.1101C17.04 17.8001 16.21 18.2601 15.35 18.3901L14.85 18.4501C11.85 18.7501 8.81003 17.2901 5.75003 14.2401C2.70003 11.1801 1.25003 8.14005 1.53003 5.21005L1.59003 4.70005C1.72322 3.7819 2.18516 2.9433 2.89003 2.34005L3.06003 2.21005C3.75798 1.66885 4.63735 1.41683 5.51602 1.50619C6.39468 1.59554 7.20532 2.01943 7.78003 2.69005ZM3.87003 3.48005C3.40633 3.88252 3.11611 4.44862 3.06003 5.06005C2.71003 7.61005 3.96003 10.3101 6.82003 13.1801C9.68003 16.0401 12.38 17.2801 14.94 16.9301C15.54 16.8801 16.11 16.5801 16.51 16.1301C17.23 15.2801 17.15 14.0401 16.33 13.3601L15.5 12.6601L15.36 12.5401C14.8452 12.1806 14.2192 12.0163 13.5942 12.0768C12.9693 12.1373 12.3863 12.4185 11.95 12.8701L11.35 13.4701L11.26 13.5401C11.1403 13.6343 10.9985 13.6966 10.8481 13.7211C10.6977 13.7456 10.5435 13.7314 10.4 13.6801C9.50679 13.2654 8.70725 12.6734 8.05003 11.9401C7.31603 11.2834 6.72392 10.4837 6.31003 9.59005C6.25032 9.42823 6.23836 9.25265 6.27559 9.08423C6.31282 8.91581 6.39767 8.76163 6.52003 8.64005L7.12003 8.04005L7.25003 7.91005C8.11003 6.91005 8.15003 5.47005 7.33003 4.49005L6.63003 3.66005L6.52003 3.53005C5.82003 2.83005 4.67003 2.80005 3.87003 3.48005Z" fill="#71AAEB"/>
</g>
</g>
</g>
</g>
<defs>
<clipPath id="clip0_1_2302">
<rect width="20" height="20" fill="white" transform="translate(0 -0.0100098)"/>
</clipPath>
</defs>
</svg>
