<svg width="20" height="20" viewBox="0 0 20 20" fill="none" xmlns="http://www.w3.org/2000/svg">
<g id="SVG">
<path id="Vector" fill-rule="evenodd" clip-rule="evenodd" d="M7.2 1.49008C7.31167 1.48332 7.42357 1.49866 7.52929 1.53524C7.63502 1.57182 7.73248 1.6289 7.81609 1.70323C7.8997 1.77755 7.96782 1.86765 8.01654 1.96835C8.06526 2.06906 8.09362 2.17839 8.1 2.29008L8.35 6.09008C8.36326 6.31551 8.28643 6.53698 8.1364 6.70577C7.98637 6.87455 7.77543 6.97682 7.55 6.99008C7.32457 7.00334 7.1031 6.92651 6.93431 6.77648C6.76553 6.62645 6.66326 6.41551 6.65 6.19008L6.4 2.39008C6.39324 2.27841 6.40858 2.16651 6.44516 2.06079C6.48174 1.95507 6.53882 1.8576 6.61315 1.77399C6.68747 1.69038 6.77757 1.62226 6.87827 1.57354C6.97898 1.52482 7.08831 1.49646 7.2 1.49008ZM13.09 1.67008C13.198 1.70108 13.2988 1.75319 13.3865 1.8234C13.4743 1.8936 13.5472 1.9805 13.6011 2.07908C13.6551 2.17765 13.6889 2.28594 13.7008 2.39768C13.7126 2.50943 13.7021 2.6224 13.67 2.73008L12.32 7.38008C12.2563 7.59756 12.1089 7.78084 11.9101 7.88961C11.7113 7.99838 11.4775 8.02373 11.26 7.96008C11.0425 7.89643 10.8592 7.74899 10.7505 7.5502C10.6417 7.35141 10.6163 7.11756 10.68 6.90008L12.03 2.25008C12.061 2.14208 12.1131 2.04129 12.1833 1.95355C12.2535 1.86582 12.3404 1.79287 12.439 1.73893C12.5376 1.685 12.6459 1.65114 12.7576 1.63932C12.8693 1.6275 12.9823 1.63796 13.09 1.67008ZM13.68 8.75008C13.8094 8.60148 13.9921 8.50979 14.1886 8.49481C14.3851 8.47984 14.5796 8.5428 14.73 8.67008C15.3104 9.17314 15.7706 9.79987 16.0769 10.5042C16.3832 11.2085 16.5278 11.9725 16.5 12.7401C16.5 15.4201 14.2 18.4901 10 18.4901C6.88 18.4901 3.5 16.2701 3.5 12.7401C3.5 12.0601 3.71 11.1501 4.27 10.3901C4.85 9.59008 5.8 8.99008 7.14 8.99008C7.53 8.99008 9.04 9.12008 9.93 10.9001C10.0202 11.0791 10.0355 11.2866 9.97271 11.477C9.90989 11.6673 9.77402 11.8249 9.595 11.9151C9.41598 12.0053 9.20847 12.0206 9.01812 11.9578C8.82777 11.895 8.67017 11.7591 8.58 11.5801C8.05 10.5001 7.23 10.4901 7.14 10.4901C6.31 10.4901 5.8 10.8401 5.48 11.2801C5.17765 11.7078 5.01046 12.2164 5 12.7401C5 15.1701 7.4 16.9901 10 16.9901C13.36 16.9901 15 14.5901 15 12.7401C15 11.7901 14.78 10.6801 13.76 9.81008C13.685 9.74586 13.6233 9.66745 13.5787 9.57935C13.534 9.49125 13.5072 9.39519 13.4998 9.2967C13.4923 9.19821 13.5044 9.09922 13.5354 9.00541C13.5663 8.91161 13.6154 8.82484 13.68 8.75008Z" fill="#71AAEB"/>
</g>
</svg>
