<svg width="20" height="20" viewBox="0 0 20 20" fill="none" xmlns="http://www.w3.org/2000/svg">
<g id="SVG">
<path id="Vector" fill-rule="evenodd" clip-rule="evenodd" d="M10 7.73999C9.66848 7.73999 9.35054 7.60829 9.11612 7.37387C8.8817 7.13945 8.75 6.82151 8.75 6.48999C8.75 6.15847 8.8817 5.84053 9.11612 5.60611C9.35054 5.37169 9.66848 5.23999 10 5.23999C10.3315 5.23999 10.6495 5.37169 10.8839 5.60611C11.1183 5.84053 11.25 6.15847 11.25 6.48999C11.25 6.82151 11.1183 7.13945 10.8839 7.37387C10.6495 7.60829 10.3315 7.73999 10 7.73999ZM7.25 6.48999C7.25 5.76064 7.53973 5.06117 8.05546 4.54545C8.57118 4.02972 9.27065 3.73999 10 3.73999C10.7293 3.73999 11.4288 4.02972 11.9445 4.54545C12.4603 5.06117 12.75 5.76064 12.75 6.48999C12.75 7.21934 12.4603 7.91881 11.9445 8.43453C11.4288 8.95026 10.7293 9.23999 10 9.23999C9.27065 9.23999 8.57118 8.95026 8.05546 8.43453C7.53973 7.91881 7.25 7.21934 7.25 6.48999ZM6.75 13.74C6.75 13.32 6.98 12.91 7.55 12.57C8.30069 12.1626 9.14632 11.9624 10 11.99C11.03 11.99 11.88 12.22 12.45 12.57C13.02 12.91 13.25 13.32 13.25 13.74C13.25 14.04 13.15 14.18 13.03 14.28C12.89 14.39 12.63 14.49 12.25 14.49H7.75C7.36 14.49 7.11 14.39 6.97 14.28C6.85 14.18 6.75 14.03 6.75 13.74ZM10 10.49C8.78 10.49 7.63 10.76 6.77 11.29C5.89 11.82 5.25 12.66 5.25 13.74C5.25 14.44 5.53 15.04 6.03 15.45C6.51 15.84 7.13 15.99 7.75 15.99H12.25C12.86 15.99 13.49 15.84 13.97 15.45C14.47 15.05 14.75 14.45 14.75 13.74C14.75 12.66 14.11 11.82 13.23 11.29C12.37 10.76 11.23 10.49 10 10.49ZM14 4.89999C14.06 4.49999 14.44 4.19999 14.85 4.25999C15.484 4.34012 16.0632 4.65997 16.4687 5.15383C16.8742 5.6477 17.0752 6.27809 17.0304 6.91553C16.9856 7.55296 16.6984 8.14904 16.2278 8.58134C15.7572 9.01363 15.1389 9.24932 14.5 9.23999C14.3011 9.23999 14.1103 9.16097 13.9697 9.02032C13.829 8.87967 13.75 8.6889 13.75 8.48999C13.75 8.29108 13.829 8.10031 13.9697 7.95966C14.1103 7.81901 14.3011 7.73999 14.5 7.73999C14.7529 7.73972 14.9963 7.64365 15.1812 7.47113C15.3661 7.2986 15.4787 7.06243 15.4965 6.81017C15.5142 6.55791 15.4357 6.30829 15.2768 6.11158C15.1179 5.91486 14.8904 5.78566 14.64 5.74999C14.444 5.72035 14.2676 5.61429 14.1496 5.45501C14.0315 5.29572 13.9813 5.09617 14.01 4.89999H14ZM15.76 9.98999C15.5611 9.98999 15.3703 10.069 15.2297 10.2097C15.089 10.3503 15.01 10.5411 15.01 10.74C15.01 10.9389 15.089 11.1297 15.2297 11.2703C15.3703 11.411 15.5611 11.49 15.76 11.49C16.92 11.49 17.51 12.16 17.51 12.74C17.51 12.96 17.44 13.15 17.32 13.29C17.22 13.41 17.08 13.49 16.86 13.49C16.6611 13.49 16.4703 13.569 16.3297 13.7097C16.189 13.8503 16.11 14.0411 16.11 14.24C16.11 14.4389 16.189 14.6297 16.3297 14.7703C16.4703 14.911 16.6611 14.99 16.86 14.99C18.29 14.99 19.01 13.78 19.01 12.74C19.01 11.03 17.41 9.98999 15.76 9.98999ZM5 10.74C5 10.5411 4.92098 10.3503 4.78033 10.2097C4.63968 10.069 4.44891 9.98999 4.25 9.98999C2.61 9.98999 1 11.03 1 12.74C1 13.78 1.72 14.99 3.15 14.99C3.34891 14.99 3.53968 14.911 3.68033 14.7703C3.82098 14.6297 3.9 14.4389 3.9 14.24C3.9 14.0411 3.82098 13.8503 3.68033 13.7097C3.53968 13.569 3.34891 13.49 3.15 13.49C3.0615 13.4955 2.97293 13.4803 2.89134 13.4456C2.80975 13.4109 2.73739 13.3576 2.68 13.29C2.55827 13.133 2.49466 12.9386 2.5 12.74C2.5 12.16 3.1 11.49 4.25 11.49C4.66 11.49 5 11.15 5 10.74ZM5.14 4.26999C5.32919 4.2554 5.51688 4.31307 5.66524 4.43137C5.8136 4.54967 5.91161 4.71981 5.93951 4.9075C5.96741 5.09519 5.92313 5.28647 5.81559 5.44281C5.70805 5.59915 5.54525 5.70892 5.36 5.74999C5.10964 5.78566 4.8821 5.91486 4.72318 6.11158C4.56427 6.30829 4.48578 6.55791 4.50353 6.81017C4.52128 7.06243 4.63394 7.2986 4.81883 7.47113C5.00372 7.64365 5.24712 7.73972 5.5 7.73999C5.69891 7.73999 5.88968 7.81901 6.03033 7.95966C6.17098 8.10031 6.25 8.29108 6.25 8.48999C6.25 8.6889 6.17098 8.87967 6.03033 9.02032C5.88968 9.16097 5.69891 9.23999 5.5 9.23999C4.87263 9.23364 4.27057 8.99162 3.81335 8.56198C3.35613 8.13235 3.07717 7.5465 3.03185 6.92073C2.98652 6.29496 3.17814 5.67503 3.56867 5.18399C3.9592 4.69294 4.52009 4.36669 5.14 4.26999Z" fill="#71AAEB"/>
</g>
</svg>
