<svg width="20" height="21" viewBox="0 0 20 21" fill="none" xmlns="http://www.w3.org/2000/svg">
<g id="SVG">
<path id="Vector" fill-rule="evenodd" clip-rule="evenodd" d="M10.18 2.43994H9C8.2 2.43994 7.53 2.43994 6.99 2.48994C6.36 2.53994 5.82 2.64994 5.32 2.89994C4.51891 3.30765 3.8677 3.95885 3.46 4.75994C3.21 5.25994 3.1 5.79994 3.05 6.42994C3 7.03994 3 7.79994 3 8.75994V13.1199C3 14.0699 3 14.8299 3.05 15.4499C3.1 16.0799 3.21 16.6199 3.46 17.1199C3.8677 17.921 4.51891 18.5722 5.32 18.9799C5.82 19.2299 6.36 19.3399 6.99 19.3799C7.6 19.4399 8.36 19.4399 9.32 19.4399H10.68C11.64 19.4399 12.4 19.4399 13.01 19.3899C13.5883 19.3647 14.1558 19.2254 14.68 18.9799C15.4811 18.5722 16.1323 17.921 16.54 17.1199C16.79 16.6199 16.9 16.0799 16.95 15.4499C17 14.8299 17 14.0699 17 13.1199V9.25994C17 8.77994 17 8.52994 16.94 8.29994C16.89 8.09994 16.81 7.89994 16.7 7.71994C16.58 7.51994 16.4 7.34994 16.06 6.99994L12.44 3.37994C12.2255 3.13663 11.9839 2.91856 11.72 2.72994C11.5405 2.61991 11.3448 2.53892 11.14 2.48994C10.91 2.43994 10.66 2.43994 10.18 2.43994ZM15.5 13.0899C15.5 14.0899 15.5 14.7899 15.46 15.3299C15.4463 15.7101 15.358 16.0839 15.2 16.4299C14.9382 16.9502 14.518 17.3738 14 17.6399C13.75 17.7699 13.43 17.8499 12.89 17.8999C12.34 17.9399 11.64 17.9399 10.65 17.9399H9.35C8.35 17.9399 7.65 17.9399 7.11 17.8999C6.72983 17.8863 6.35606 17.7979 6.01 17.6399C5.48978 17.3782 5.06609 16.958 4.8 16.4399C4.64174 16.0905 4.55341 15.7134 4.54 15.3299C4.5 14.7799 4.5 14.0799 4.5 13.0899V8.78994C4.5 7.78994 4.5 7.08994 4.54 6.54994C4.59 6.01994 4.67 5.68994 4.8 5.44994C5.06179 4.92972 5.48197 4.50604 6 4.23994C6.25 4.10994 6.57 4.02994 7.11 3.97994C7.66 3.93994 8.36 3.93994 9.35 3.93994H10V6.28994C10 6.68994 10 7.04994 10.02 7.33994C10.05 7.63994 10.11 7.94994 10.26 8.23994C10.47 8.63994 10.8 8.96994 11.2 9.17994C11.49 9.32994 11.8 9.38994 12.1 9.41994C12.39 9.43994 12.74 9.43994 13.15 9.43994H15.5V13.0899ZM14.88 7.93994L11.5 4.55994V6.25994C11.5 6.70994 11.5 6.99994 11.52 7.20994C11.54 7.42994 11.57 7.50994 11.59 7.53994C11.6575 7.67042 11.7618 7.77822 11.89 7.84994C11.94 7.86994 12.01 7.89994 12.22 7.91994C12.44 7.93994 12.73 7.93994 13.18 7.93994H14.88Z" fill="#71AAEB"/>
</g>
</svg>
