<svg width="20" height="20" viewBox="0 0 20 20" fill="none" xmlns="http://www.w3.org/2000/svg">
<g id="SVG">
<path id="Vector" fill-rule="evenodd" clip-rule="evenodd" d="M6.84 16.43C7.6 16.49 8.58 16.49 10 16.49C11.42 16.49 12.4 16.49 13.16 16.43C13.6531 16.4184 14.139 16.3097 14.59 16.11C15.2488 15.7744 15.7844 15.2388 16.12 14.58C16.27 14.29 16.38 13.89 16.44 13.15L16.47 12.52L15.17 11.22C14.87 10.92 14.67 10.72 14.5 10.58C14.4222 10.5034 14.3306 10.4423 14.23 10.4C14.0805 10.3518 13.9195 10.3518 13.77 10.4C13.6694 10.4423 13.5778 10.5034 13.5 10.58C13.34 10.71 13.14 10.91 12.83 11.22L10.53 13.52C10.3894 13.6604 10.1988 13.7393 10 13.7393C9.80125 13.7393 9.61063 13.6604 9.47 13.52L9.17 13.22C8.87 12.92 8.67 12.72 8.5 12.58C8.42224 12.5034 8.33061 12.4423 8.23 12.4C8.08045 12.3518 7.91955 12.3518 7.77 12.4C7.66939 12.4423 7.57776 12.5034 7.5 12.58C7.34 12.71 7.14 12.91 6.83 13.22L4.56 15.49C4.81 15.73 5.09 15.94 5.41 16.09C5.7 16.25 6.1 16.36 6.84 16.42V16.43ZM16.23 10.16L16.5 10.43V9.98999C16.5 8.56999 16.5 7.58999 16.44 6.82999C16.4284 6.33692 16.3197 5.85098 16.12 5.39999C15.7844 4.74119 15.2488 4.20559 14.59 3.86999C14.139 3.67032 13.6531 3.56158 13.16 3.54999C12.1078 3.49145 11.0537 3.47144 10 3.48999C8.58 3.48999 7.6 3.48999 6.84 3.54999C6.1 3.60999 5.7 3.71999 5.41 3.86999C4.7512 4.20559 4.2156 4.74119 3.88 5.39999C3.73 5.68999 3.62 6.08999 3.56 6.82999C3.50146 7.88224 3.48145 8.93628 3.5 9.98999C3.5 11.41 3.5 12.39 3.56 13.15C3.6 13.62 3.66 13.95 3.73 14.2L5.77 12.16L5.79 12.14C6.07 11.86 6.31 11.62 6.53 11.44C6.76 11.24 7 11.07 7.3 10.97C7.76 10.82 8.24 10.82 8.7 10.97C9 11.07 9.24 11.24 9.47 11.43C9.63 11.57 9.81 11.73 10 11.93L11.77 10.16L11.79 10.14C12.07 9.85999 12.31 9.61999 12.53 9.43999C12.76 9.23999 13 9.06999 13.3 8.96999C13.76 8.81999 14.24 8.81999 14.7 8.96999C15 9.06999 15.24 9.23999 15.47 9.42999C15.69 9.61999 15.93 9.85999 16.21 10.13L16.23 10.16ZM2.54 4.71999C2 5.78999 2 7.18999 2 9.98999C2 12.79 2 14.19 2.54 15.26C3.01981 16.2034 3.78661 16.9702 4.73 17.45C5.8 17.99 7.2 17.99 10 17.99C12.8 17.99 14.2 17.99 15.27 17.45C16.2134 16.9702 16.9802 16.2034 17.46 15.26C18 14.19 18 12.79 18 9.98999C18 7.18999 18 5.78999 17.45 4.71999C16.9728 3.77812 16.2097 3.0115 15.27 2.52999C14.2 1.98999 12.8 1.98999 10 1.98999C7.2 1.98999 5.8 1.98999 4.73 2.52999C3.78661 3.0098 3.01981 3.7766 2.54 4.71999ZM7.25 5.98999C6.91848 5.98999 6.60054 6.12169 6.36612 6.35611C6.1317 6.59053 6 6.90847 6 7.23999C6 7.57151 6.1317 7.88945 6.36612 8.12387C6.60054 8.35829 6.91848 8.48999 7.25 8.48999C7.58152 8.48999 7.89946 8.35829 8.13388 8.12387C8.3683 7.88945 8.5 7.57151 8.5 7.23999C8.5 6.90847 8.3683 6.59053 8.13388 6.35611C7.89946 6.12169 7.58152 5.98999 7.25 5.98999Z" fill="#71AAEB"/>
</g>
</svg>
