<svg width="20" height="20" viewBox="0 0 20 20" fill="none" xmlns="http://www.w3.org/2000/svg">
<g id="SVG">
<g id="Group">
<g id="Group_2">
<path id="Vector" fill-rule="evenodd" clip-rule="evenodd" d="M6.25 3.48999C5.45435 3.48999 4.69129 3.80606 4.12868 4.36867C3.56607 4.93128 3.25 5.69434 3.25 6.48999C3.25 7.28564 3.56607 8.0487 4.12868 8.61131C4.69129 9.17392 5.45435 9.48999 6.25 9.48999C7.04565 9.48999 7.80871 9.17392 8.37132 8.61131C8.93393 8.0487 9.25 7.28564 9.25 6.48999C9.25 5.69434 8.93393 4.93128 8.37132 4.36867C7.80871 3.80606 7.04565 3.48999 6.25 3.48999ZM4.75 6.48999C4.75 6.68697 4.7888 6.88203 4.86418 7.06402C4.93956 7.246 5.05005 7.41136 5.18934 7.55065C5.32863 7.68994 5.49399 7.80043 5.67597 7.87581C5.85796 7.95119 6.05302 7.98999 6.25 7.98999C6.44698 7.98999 6.64204 7.95119 6.82403 7.87581C7.00601 7.80043 7.17137 7.68994 7.31066 7.55065C7.44995 7.41136 7.56044 7.246 7.63582 7.06402C7.7112 6.88203 7.75 6.68697 7.75 6.48999C7.75 6.09217 7.59196 5.71063 7.31066 5.42933C7.02936 5.14803 6.64782 4.98999 6.25 4.98999C5.85218 4.98999 5.47064 5.14803 5.18934 5.42933C4.90804 5.71063 4.75 6.09217 4.75 6.48999ZM2.69 11.56C3.65 11.01 4.91 10.74 6.25 10.74C7.59 10.74 8.85 11.01 9.81 11.56C10.79 12.12 11.5 13.03 11.5 14.24C11.5 14.94 11.22 15.54 10.72 15.95C10.24 16.34 9.62 16.49 9 16.49H3.5C2.89 16.49 2.26 16.34 1.78 15.95C1.28 15.55 1 14.95 1 14.24C1 13.03 1.71 12.12 2.69 11.56ZM3.44 12.86C2.79 13.23 2.5 13.7 2.5 14.24C2.5 14.54 2.6 14.68 2.72 14.78C2.86 14.89 3.12 14.99 3.5 14.99H9C9.39 14.99 9.64 14.89 9.78 14.78C9.9 14.68 10 14.53 10 14.24C10 13.7 9.71 13.24 9.06 12.86C8.4 12.47 7.41 12.24 6.25 12.24C5.09 12.24 4.1 12.47 3.44 12.86ZM13.75 3.48999C12.9544 3.48999 12.1913 3.80606 11.6287 4.36867C11.0661 4.93128 10.75 5.69434 10.75 6.48999C10.75 7.28564 11.0661 8.0487 11.6287 8.61131C12.1913 9.17392 12.9544 9.48999 13.75 9.48999C14.5456 9.48999 15.3087 9.17392 15.8713 8.61131C16.4339 8.0487 16.75 7.28564 16.75 6.48999C16.75 5.69434 16.4339 4.93128 15.8713 4.36867C15.3087 3.80606 14.5456 3.48999 13.75 3.48999ZM12.25 6.48999C12.25 6.88781 12.408 7.26935 12.6893 7.55065C12.9706 7.83195 13.3522 7.98999 13.75 7.98999C14.1478 7.98999 14.5294 7.83195 14.8107 7.55065C15.092 7.26935 15.25 6.88781 15.25 6.48999C15.25 6.09217 15.092 5.71063 14.8107 5.42933C14.5294 5.14803 14.1478 4.98999 13.75 4.98999C13.3522 4.98999 12.9706 5.14803 12.6893 5.42933C12.408 5.71063 12.25 6.09217 12.25 6.48999Z" fill="#71AAEB"/>
</g>
<path id="Vector_2" d="M13.75 12.24C13.52 12.24 13.3 12.25 13.07 12.27C12.9686 12.2865 12.8648 12.282 12.7652 12.2567C12.6656 12.2315 12.5722 12.186 12.4909 12.1232C12.4096 12.0604 12.342 11.9815 12.2925 11.8915C12.2429 11.8015 12.2124 11.7022 12.2028 11.5999C12.1931 11.4976 12.2047 11.3944 12.2366 11.2967C12.2685 11.199 12.3202 11.1089 12.3884 11.0321C12.4566 10.9552 12.5398 10.8931 12.633 10.8498C12.7262 10.8064 12.8273 10.7827 12.93 10.78C13.2 10.75 13.47 10.74 13.75 10.74C15.09 10.74 16.35 11.01 17.31 11.56C18.29 12.12 19 13.03 19 14.24C19 14.94 18.72 15.54 18.22 15.95C17.74 16.34 17.12 16.49 16.5 16.49H13.5C13.3011 16.49 13.1103 16.411 12.9697 16.2703C12.829 16.1297 12.75 15.9389 12.75 15.74C12.75 15.5411 12.829 15.3503 12.9697 15.2097C13.1103 15.069 13.3011 14.99 13.5 14.99H16.5C16.89 14.99 17.14 14.89 17.28 14.78C17.4 14.68 17.5 14.53 17.5 14.24C17.5 13.7 17.21 13.24 16.56 12.86C15.6907 12.4193 14.724 12.206 13.75 12.24Z" fill="#71AAEB"/>
</g>
</g>
</svg>
