<svg width="20" height="20" viewBox="0 0 20 20" fill="none" xmlns="http://www.w3.org/2000/svg">
<g id="SVG">
<path id="Vector" fill-rule="evenodd" clip-rule="evenodd" d="M11.5 3.98999H8.5C6.18 3.98999 4.25 4.41999 2.92 5.74999C1.59 7.07999 1.02 9.13999 1 11.99C1 12.79 1.05 13.98 1.46 14.99C1.66 15.49 1.96 16 2.44 16.39C2.92 16.78 3.53 17 4.25 17C5.05 17 5.62 16.67 6.06 16.23C6.37 15.92 6.64 15.51 6.86 15.16L7.03 14.92C7.31 14.5 7.58 14.16 7.94 13.92C8.29 13.68 8.76 13.5 9.5 13.5H10.5C11.24 13.5 11.71 13.68 12.06 13.92C12.42 14.16 12.69 14.5 12.97 14.92L13.13 15.16C13.36 15.51 13.63 15.92 13.93 16.23C14.38 16.67 14.95 17 15.75 17C16.4062 17.0151 17.0468 16.7992 17.56 16.39C18.03 16 18.34 15.49 18.54 14.99C18.94 13.98 19.01 12.79 19 11.99C18.98 9.14999 18.4 7.08999 17.08 5.75999C15.75 4.41999 13.82 3.98999 11.5 3.98999ZM10.5 11.99H9.5C8.49 11.99 7.71 12.25 7.1 12.67C6.5 13.07 6.1 13.61 5.79 14.07L5.56 14.41C5.35 14.73 5.19 14.97 4.99 15.17C4.89767 15.2743 4.78351 15.3571 4.65563 15.4124C4.52775 15.4677 4.38926 15.4942 4.25 15.49C3.85 15.49 3.58 15.37 3.38 15.21C3.1392 14.9959 2.95682 14.724 2.85 14.42C2.5885 13.641 2.46993 12.8212 2.5 12C2.52 9.28999 3.07 7.71999 3.98 6.80999C4.89 5.90999 6.32 5.48999 8.5 5.48999H11.5C13.68 5.48999 15.11 5.90999 16.02 6.80999C16.92 7.71999 17.48 9.28999 17.5 12C17.5 12.75 17.44 13.7 17.15 14.42C17.0447 14.7276 16.8622 15.0031 16.62 15.22C16.42 15.37 16.15 15.49 15.75 15.49C15.6107 15.4942 15.4723 15.4677 15.3444 15.4124C15.2165 15.3571 15.1023 15.2743 15.01 15.17C14.81 14.97 14.65 14.73 14.44 14.41L14.21 14.07C13.91 13.61 13.51 13.07 12.91 12.67C12.1964 12.1994 11.3543 11.9618 10.5 11.99ZM7.25 7.48999C7.25 7.29108 7.17098 7.10031 7.03033 6.95966C6.88968 6.81901 6.69891 6.73999 6.5 6.73999C6.30109 6.73999 6.11032 6.81901 5.96967 6.95966C5.82902 7.10031 5.75 7.29108 5.75 7.48999V8.23999H5C4.80109 8.23999 4.61032 8.31901 4.46967 8.45966C4.32902 8.60031 4.25 8.79108 4.25 8.98999C4.25 9.1889 4.32902 9.37967 4.46967 9.52032C4.61032 9.66097 4.80109 9.73999 5 9.73999H5.75V10.49C5.75 10.6889 5.82902 10.8797 5.96967 11.0203C6.11032 11.161 6.30109 11.24 6.5 11.24C6.69891 11.24 6.88968 11.161 7.03033 11.0203C7.17098 10.8797 7.25 10.6889 7.25 10.49V9.73999H8C8.19891 9.73999 8.38968 9.66097 8.53033 9.52032C8.67098 9.37967 8.75 9.1889 8.75 8.98999C8.75 8.79108 8.67098 8.60031 8.53033 8.45966C8.38968 8.31901 8.19891 8.23999 8 8.23999H7.25V7.48999ZM12.5 8.23999C12.3011 8.23999 12.1103 8.31901 11.9697 8.45966C11.829 8.60031 11.75 8.79108 11.75 8.98999C11.75 9.1889 11.829 9.37967 11.9697 9.52032C12.1103 9.66097 12.3011 9.73999 12.5 9.73999H14.5C14.6989 9.73999 14.8897 9.66097 15.0303 9.52032C15.171 9.37967 15.25 9.1889 15.25 8.98999C15.25 8.79108 15.171 8.60031 15.0303 8.45966C14.8897 8.31901 14.6989 8.23999 14.5 8.23999H12.5Z" fill="#71AAEB"/>
</g>
</svg>
