<svg width="20" height="20" viewBox="0 0 20 20" fill="none" xmlns="http://www.w3.org/2000/svg">
<g id="SVG">
<path id="Vector" fill-rule="evenodd" clip-rule="evenodd" d="M7.25 5.73999C7.25 5.01064 7.53973 4.31117 8.05546 3.79545C8.57118 3.27972 9.27065 2.98999 10 2.98999C10.7293 2.98999 11.4288 3.27972 11.9445 3.79545C12.4603 4.31117 12.75 5.01064 12.75 5.73999V5.98999H7.25V5.73999ZM5.75 5.98999V5.73999C5.75 4.61282 6.19777 3.53182 6.9948 2.73479C7.79183 1.93776 8.87283 1.48999 10 1.48999C11.1272 1.48999 12.2082 1.93776 13.0052 2.73479C13.8022 3.53182 14.25 4.61282 14.25 5.73999V5.98999C15.26 6.00999 15.87 6.06999 16.36 6.31999C16.9224 6.60491 17.3808 7.05977 17.67 7.61999C18 8.26999 18 9.10999 18 10.79V11.29C18 13.81 18 15.07 17.51 16.03C17.0783 16.8785 16.3885 17.5683 15.54 18C14.58 18.49 13.32 18.49 10.8 18.49H9.2C6.68 18.49 5.42 18.49 4.46 18C3.61147 17.5683 2.92174 16.8785 2.49 16.03C2 15.07 2 13.81 2 11.29V10.79C2 9.10999 2 8.26999 2.33 7.62999C2.61492 7.06757 3.06978 6.60921 3.63 6.31999C4.13 6.06999 4.73 6.00999 5.75 5.98999ZM4.95 7.52999C5.38 7.48999 5.94 7.48999 6.8 7.48999H13.2C14.06 7.48999 14.62 7.48999 15.05 7.52999C15.45 7.55999 15.61 7.61999 15.68 7.64999C15.96 7.79999 16.19 8.02999 16.34 8.30999C16.37 8.37999 16.44 8.52999 16.46 8.93999C16.5 9.36999 16.5 9.92999 16.5 10.79V11.29C16.5 12.57 16.5 13.45 16.44 14.12C16.39 14.78 16.29 15.12 16.17 15.35C15.8851 15.9124 15.4302 16.3708 14.87 16.66C14.63 16.78 14.29 16.88 13.63 16.93C12.96 16.99 12.08 16.99 10.8 16.99H9.2C7.92 16.99 7.04 16.99 6.37 16.93C5.71 16.88 5.37 16.78 5.14 16.66C4.57758 16.3751 4.11922 15.9202 3.83 15.36C3.65914 14.9685 3.56738 14.5471 3.56 14.12C3.5 13.45 3.5 12.57 3.5 11.29V10.79C3.5 9.92999 3.5 9.36999 3.54 8.93999C3.57 8.53999 3.63 8.37999 3.66 8.30999C3.81 8.02999 4.04 7.79999 4.32 7.64999C4.39 7.61999 4.54 7.54999 4.95 7.52999ZM5.75 9.85999C5.75 9.62793 5.84219 9.40537 6.00628 9.24127C6.17038 9.07718 6.39294 8.98499 6.625 8.98499C6.85706 8.98499 7.07962 9.07718 7.24372 9.24127C7.40781 9.40537 7.5 9.62793 7.5 9.85999C7.5 10.0921 7.40781 10.3146 7.24372 10.4787C7.07962 10.6428 6.85706 10.735 6.625 10.735C6.39294 10.735 6.17038 10.6428 6.00628 10.4787C5.84219 10.3146 5.75 10.0921 5.75 9.85999ZM13.38 8.98999C13.2572 8.97685 13.1331 8.98968 13.0156 9.02767C12.8981 9.06565 12.79 9.12793 12.6981 9.21045C12.6063 9.29298 12.5329 9.39391 12.4826 9.50667C12.4323 9.61944 12.4063 9.74152 12.4063 9.86499C12.4063 9.98846 12.4323 10.1105 12.4826 10.2233C12.5329 10.3361 12.6063 10.437 12.6981 10.5195C12.79 10.6021 12.8981 10.6643 13.0156 10.7023C13.1331 10.7403 13.2572 10.7531 13.38 10.74C13.5959 10.7169 13.7957 10.6147 13.9409 10.4532C14.086 10.2917 14.1663 10.0822 14.1663 9.86499C14.1663 9.64782 14.086 9.43832 13.9409 9.27679C13.7957 9.11526 13.5959 9.01311 13.38 8.98999Z" fill="#71AAEB"/>
</g>
</svg>
