<svg width="20" height="20" viewBox="0 0 20 20" fill="none" xmlns="http://www.w3.org/2000/svg">
<g id="SVG" clip-path="url(#clip0_1_2291)">
<g id="message_outline_20__Page-2">
<g id="message_outline_20__message_outline_20">
<path id="message_outline_20__Icon-Color" d="M6.82995 15.74C7.02995 15.51 7.35995 15.43 7.64995 15.54C8.45995 15.84 9.34995 15.99 10.2499 15.99C14.0199 15.99 16.9999 13.29 16.9999 9.98999C16.9999 6.68999 14.0199 3.98999 10.2499 3.98999C6.47995 3.98999 3.49995 6.68999 3.49995 9.98999C3.49995 11.2 3.89995 12.36 4.63995 13.34C4.73995 13.48 4.79995 13.65 4.78995 13.83C4.74995 14.59 4.38995 15.61 3.70995 16.96C5.18995 16.85 6.20995 16.43 6.82995 15.74ZM3.23995 18.49C3.02851 18.4978 2.81876 18.4496 2.63196 18.3503C2.44516 18.2509 2.28795 18.1039 2.17627 17.9242C2.06459 17.7445 2.00241 17.5385 1.99603 17.327C1.98965 17.1155 2.0393 16.9061 2.13995 16.72C2.63676 15.8657 3.01363 14.9471 3.25995 13.99C2.44102 12.8168 2.00128 11.4208 1.99995 9.98999C1.99995 5.81999 5.67995 2.48999 10.2499 2.48999C14.8199 2.48999 18.4999 5.81999 18.4999 9.98999C18.4999 14.16 14.8199 17.49 10.2499 17.49C9.32995 17.49 8.43995 17.36 7.58995 17.09C6.58995 17.98 5.12995 18.43 3.23995 18.49Z" fill="#71AAEB"/>
</g>
</g>
</g>
<defs>
<clipPath id="clip0_1_2291">
<rect width="20" height="20" fill="white" transform="translate(0 -0.0100098)"/>
</clipPath>
</defs>
</svg>
