<svg width="20" height="20" viewBox="0 0 20 20" fill="none" xmlns="http://www.w3.org/2000/svg">
<g id="SVG">
<path id="Vector" d="M5.5 10.99C5.69891 10.99 5.88968 11.069 6.03033 11.2097C6.17098 11.3503 6.25 11.5411 6.25 11.74V12.74C6.25 12.9389 6.17098 13.1297 6.03033 13.2703C5.88968 13.411 5.69891 13.49 5.5 13.49C5.30109 13.49 5.11032 13.411 4.96967 13.2703C4.82902 13.1297 4.75 12.9389 4.75 12.74V11.74C4.75 11.5411 4.82902 11.3503 4.96967 11.2097C5.11032 11.069 5.30109 10.99 5.5 10.99ZM9.25 10.74C9.25 10.5411 9.17098 10.3503 9.03033 10.2097C8.88968 10.069 8.69891 9.99 8.5 9.99C8.30109 9.99 8.11032 10.069 7.96967 10.2097C7.82902 10.3503 7.75 10.5411 7.75 10.74V13.49C7.75 13.6889 7.82902 13.8797 7.96967 14.0203C8.11032 14.161 8.30109 14.24 8.5 14.24C8.69891 14.24 8.88968 14.161 9.03033 14.0203C9.17098 13.8797 9.25 13.6889 9.25 13.49V10.74ZM14.5 9.99C14.5993 9.98999 14.6977 10.0097 14.7893 10.048C14.881 10.0863 14.9641 10.1425 15.0339 10.2132C15.1037 10.2839 15.1587 10.3678 15.1958 10.4599C15.2329 10.5521 15.2513 10.6507 15.25 10.75V13.55C15.2487 13.7489 15.1684 13.9392 15.0268 14.0789C14.8852 14.2186 14.6939 14.2963 14.495 14.295C14.2961 14.2937 14.1058 14.2134 13.9661 14.0718C13.8264 13.9302 13.7487 13.7389 13.75 13.54V10.74C13.75 10.5411 13.829 10.3503 13.9697 10.2097C14.1103 10.069 14.3011 9.99 14.5 9.99ZM12.25 9.25C12.25 9.05109 12.171 8.86032 12.0303 8.71967C11.8897 8.57902 11.6989 8.5 11.5 8.5C11.3011 8.5 11.1103 8.57902 10.9697 8.71967C10.829 8.86032 10.75 9.05109 10.75 9.25V13.75C10.75 13.9489 10.829 14.1397 10.9697 14.2803C11.1103 14.421 11.3011 14.5 11.5 14.5C11.6989 14.5 11.8897 14.421 12.0303 14.2803C12.171 14.1397 12.25 13.9489 12.25 13.75V9.25Z" fill="#71AAEB"/>
<path id="Vector_2" fill-rule="evenodd" clip-rule="evenodd" d="M7.92 1.98999C7.04 1.98999 6.32 1.98999 5.75 2.03999C5.20596 2.06443 4.67224 2.19701 4.18 2.42999C3.43157 2.81275 2.82276 3.42156 2.44 4.16999C2.20356 4.66151 2.06758 5.19526 2.04 5.73999C2 6.31999 2 7.02999 2 7.90999V12.07C2 12.95 2 13.67 2.05 14.24C2.09 14.82 2.2 15.34 2.44 15.81C2.82276 16.5584 3.43157 17.1672 4.18 17.55C4.66 17.79 5.17 17.9 5.75 17.95C6.33 17.99 7.04 17.99 7.92 17.99H12.08C12.96 17.99 13.68 17.99 14.25 17.94C14.794 17.9156 15.3278 17.783 15.82 17.55C16.5684 17.1672 17.1772 16.5584 17.56 15.81C17.8 15.34 17.91 14.82 17.96 14.24C18 13.66 18 12.95 18 12.07V7.90999C18 7.02999 18 6.30999 17.95 5.73999C17.9256 5.19595 17.793 4.66223 17.56 4.16999C17.1772 3.42156 16.5684 2.81275 15.82 2.42999C15.3285 2.19355 14.7947 2.05757 14.25 2.02999C13.67 1.98999 12.96 1.98999 12.08 1.98999H7.92ZM4.87 3.75999C5.09 3.64999 5.38 3.56999 5.87 3.52999C6.38 3.48999 7.03 3.48999 7.95 3.48999H12.05C12.97 3.48999 13.62 3.48999 14.12 3.52999C14.62 3.56999 14.92 3.64999 15.14 3.75999C15.6106 4.00205 15.9922 4.3872 16.23 4.85999C16.34 5.07999 16.42 5.36999 16.46 5.85999C16.49 6.27999 16.5 6.78999 16.5 7.45999C16.12 7.17999 15.65 6.85999 15.15 6.55999C14.11 5.90999 12.75 5.23999 11.5 5.23999C10.07 5.23999 8.97 5.87999 7.96 6.46999L7.54 6.71999C6.32109 7.47387 4.93136 7.9073 3.5 7.97999V7.93999C3.5 7.01999 3.5 6.36999 3.54 5.86999C3.58 5.36999 3.66 5.06999 3.77 4.85999C4.01035 4.38567 4.39568 4.00034 4.87 3.75999ZM3.5 9.48999V12.04C3.5 12.96 3.5 13.61 3.54 14.11C3.58 14.61 3.66 14.91 3.77 15.13C4.01206 15.6006 4.39721 15.9822 4.87 16.22C5.09 16.33 5.38 16.41 5.87 16.45C6.38 16.49 7.03 16.49 7.95 16.49H12.05C12.97 16.49 13.62 16.49 14.12 16.45C14.62 16.41 14.92 16.33 15.14 16.22C15.6106 15.9779 15.9922 15.5928 16.23 15.12C16.34 14.9 16.42 14.61 16.46 14.12C16.5 13.61 16.5 12.96 16.5 12.04V9.34999C16.4432 9.30686 16.3865 9.26352 16.33 9.21999C15.9 8.88999 15.19 8.33999 14.37 7.82999C13.52 7.23142 12.533 6.85656 11.5 6.73999C10.5 6.73999 9.77 7.15999 8.73 7.75999C8.58032 7.84721 8.43032 7.93387 8.28 8.01999C6.83743 8.90813 5.19234 9.41404 3.5 9.48999Z" fill="#71AAEB"/>
</g>
</svg>
