<svg width="20" height="20" viewBox="0 0 20 20" fill="none" xmlns="http://www.w3.org/2000/svg">
<g id="SVG">
<path id="Vector" fill-rule="evenodd" clip-rule="evenodd" d="M11.84 1.98999H8.16C7.23 1.98999 6.49 1.98999 5.9 2.03999C5.28 2.08999 4.75 2.18999 4.27 2.43999C3.48578 2.83844 2.84845 3.47577 2.45 4.25999C2.2099 4.77142 2.07392 5.32551 2.05 5.88999C2 6.48999 2 7.21999 2 8.14999V11.83C2 12.76 2 13.5 2.05 14.09C2.1 14.71 2.2 15.24 2.45 15.72C2.85 16.5 3.49 17.14 4.27 17.54C4.75 17.79 5.28 17.89 5.9 17.94C6.5 17.99 7.23 17.99 8.16 17.99H11.84C12.77 17.99 13.51 17.99 14.1 17.94C14.6645 17.9161 15.2186 17.7801 15.73 17.54C16.5142 17.1415 17.1515 16.5042 17.55 15.72C17.8 15.24 17.9 14.71 17.95 14.09C18 13.49 18 12.76 18 11.83V8.14999C18 7.21999 18 6.47999 17.95 5.88999C17.9261 5.32551 17.7901 4.77142 17.55 4.25999C17.1515 3.47577 16.5142 2.83844 15.73 2.43999C15.2186 2.19989 14.6645 2.06391 14.1 2.03999C13.5 1.98999 12.77 1.98999 11.84 1.98999ZM4.94 3.77999C5.19 3.65999 5.5 3.57999 6.02 3.52999C6.55 3.48999 7.22 3.48999 8.19 3.48999H11.81C12.77 3.48999 13.45 3.48999 13.98 3.52999C14.5 3.57999 14.81 3.65999 15.05 3.77999C15.55 4.02999 15.95 4.43999 16.21 4.93999C16.33 5.17999 16.41 5.48999 16.46 6.00999L16.48 6.48999H3.52L3.54 6.00999C3.59 5.48999 3.67 5.17999 3.79 4.93999C4.04 4.43999 4.45 4.03999 4.95 3.77999H4.94ZM3.5 7.98999V11.8C3.5 12.76 3.5 13.44 3.54 13.97C3.59 14.49 3.67 14.8 3.79 15.04C4.04 15.54 4.45 15.94 4.95 16.2C5.19 16.32 5.5 16.4 6.02 16.45C6.55 16.49 7.22 16.49 8.19 16.49H11.81C12.77 16.49 13.45 16.49 13.98 16.45C14.3497 16.4381 14.7133 16.3532 15.05 16.2C15.55 15.95 15.95 15.54 16.21 15.04C16.33 14.8 16.41 14.49 16.46 13.97C16.5 13.44 16.5 12.77 16.5 11.8V7.98999H3.5Z" fill="#71AAEB"/>
</g>
</svg>
