<svg width="20" height="21" viewBox="0 0 20 21" fill="none" xmlns="http://www.w3.org/2000/svg">
<g id="SVG">
<path id="Vector" fill-rule="evenodd" clip-rule="evenodd" d="M10 17.96C9.08075 17.96 8.1705 17.7789 7.32122 17.4271C6.47194 17.0753 5.70026 16.5597 5.05025 15.9097C4.40024 15.2597 3.88463 14.488 3.53284 13.6387C3.18106 12.7895 3 11.8792 3 10.96C3 10.0407 3.18106 9.13046 3.53284 8.28118C3.88463 7.4319 4.40024 6.66022 5.05025 6.01021C5.70026 5.3602 6.47194 4.84459 7.32122 4.4928C8.1705 4.14102 9.08075 3.95996 10 3.95996C11.8565 3.95996 13.637 4.69746 14.9497 6.01021C16.2625 7.32297 17 9.10345 17 10.96C17 12.8165 16.2625 14.597 14.9497 15.9097C13.637 17.2225 11.8565 17.96 10 17.96ZM1.5 10.96C1.5 9.84373 1.71986 8.73842 2.14702 7.70715C2.57419 6.67588 3.20029 5.73885 3.98959 4.94955C4.77889 4.16026 5.71592 3.53415 6.74719 3.10698C7.77846 2.67982 8.88376 2.45996 10 2.45996C11.1162 2.45996 12.2215 2.67982 13.2528 3.10698C14.2841 3.53415 15.2211 4.16026 16.0104 4.94955C16.7997 5.73885 17.4258 6.67588 17.853 7.70715C18.2801 8.73842 18.5 9.84373 18.5 10.96C18.5 13.2143 17.6045 15.3763 16.0104 16.9704C14.4163 18.5644 12.2543 19.46 10 19.46C7.74566 19.46 5.58365 18.5644 3.98959 16.9704C2.39553 15.3763 1.5 13.2143 1.5 10.96ZM8.75 6.95996C8.55109 6.95996 8.36032 7.03898 8.21967 7.17963C8.07902 7.32028 8 7.51105 8 7.70996V10.71H7.75C7.55109 10.71 7.36032 10.789 7.21967 10.9296C7.07902 11.0703 7 11.261 7 11.46C7 11.6589 7.07902 11.8496 7.21967 11.9903C7.36032 12.1309 7.55109 12.21 7.75 12.21H8V12.96H7.75C7.55109 12.96 7.36032 13.039 7.21967 13.1796C7.07902 13.3203 7 13.511 7 13.71C7 13.9089 7.07902 14.0996 7.21967 14.2403C7.36032 14.3809 7.55109 14.46 7.75 14.46H8V14.96C8 15.1589 8.07902 15.3496 8.21967 15.4903C8.36032 15.6309 8.55109 15.71 8.75 15.71C8.94891 15.71 9.13968 15.6309 9.28033 15.4903C9.42098 15.3496 9.5 15.1589 9.5 14.96V14.46H11C11.1989 14.46 11.3897 14.3809 11.5303 14.2403C11.671 14.0996 11.75 13.9089 11.75 13.71C11.75 13.511 11.671 13.3203 11.5303 13.1796C11.3897 13.039 11.1989 12.96 11 12.96H9.5V12.21H11.13C11.7982 12.1687 12.4255 11.8742 12.884 11.3864C13.3426 10.8987 13.5979 10.2544 13.5979 9.58496C13.5979 8.9155 13.3426 8.27124 12.884 7.78349C12.4255 7.29574 11.7982 7.00122 11.13 6.95996H8.75ZM11.13 10.71H9.5V8.45996H11.13C11.4101 8.4864 11.6702 8.61634 11.8595 8.8244C12.0489 9.03245 12.1538 9.30365 12.1538 9.58496C12.1538 9.86627 12.0489 10.1375 11.8595 10.3455C11.6702 10.5536 11.4101 10.6835 11.13 10.71Z" fill="#71AAEB"/>
</g>
</svg>
