<svg width="20" height="21" viewBox="0 0 20 21" fill="none" xmlns="http://www.w3.org/2000/svg">
<g id="SVG">
<path id="Vector" fill-rule="evenodd" clip-rule="evenodd" d="M11.76 8.66007C11.48 8.39007 11.24 8.15007 11.06 7.93007C10.854 7.70694 10.6943 7.44524 10.59 7.16007C10.4411 6.70528 10.4411 6.21486 10.59 5.76007C10.69 5.46007 10.86 5.22007 11.05 4.99007C11.24 4.77007 11.5 4.51007 11.78 4.23007L12.03 3.99007L12.27 3.74007C12.55 3.46007 12.81 3.20007 13.03 3.01007C13.26 2.82007 13.5 2.65007 13.8 2.55007C14.26 2.41007 14.74 2.41007 15.2 2.55007C15.5 2.65007 15.74 2.82007 15.97 3.01007C16.19 3.20007 16.43 3.44007 16.71 3.71007L16.97 3.99007L17.24 4.25007C17.52 4.53007 17.76 4.77007 17.94 4.99007C18.14 5.22007 18.31 5.46007 18.41 5.76007C18.55 6.22007 18.55 6.70007 18.41 7.16007C18.31 7.46007 18.14 7.70007 17.95 7.93007C17.76 8.15007 17.5 8.41007 17.22 8.69007L16.97 8.93007L16.73 9.18007C16.45 9.46007 16.19 9.72007 15.97 9.91007C15.74 10.1001 15.5 10.2701 15.2 10.3701C14.74 10.5101 14.26 10.5101 13.8 10.3701C13.5156 10.2688 13.254 10.1124 13.03 9.91007C12.7746 9.6862 12.5277 9.4527 12.29 9.21007L12.03 8.93007L11.76 8.67007V8.66007ZM16.16 7.63007L15.91 7.87007L15.67 8.12007C15.37 8.42007 15.17 8.62007 15 8.76007C14.9224 8.83685 14.8307 8.89796 14.73 8.94007C14.5805 8.98825 14.4195 8.98825 14.27 8.94007C14.1694 8.89775 14.0778 8.83666 14 8.76007C13.84 8.62007 13.64 8.43007 13.33 8.12007L13.09 7.87007L12.84 7.63007C12.54 7.33007 12.34 7.13007 12.2 6.96007C12.1232 6.88246 12.0621 6.79079 12.02 6.69007C11.9718 6.54052 11.9718 6.37962 12.02 6.23007C12.0621 6.12934 12.1232 6.03767 12.2 5.96007C12.34 5.80007 12.53 5.60007 12.84 5.29007L13.09 5.05007L13.33 4.80007C13.63 4.50007 13.83 4.30007 14 4.16007C14.0778 4.08348 14.1694 4.02239 14.27 3.98007C14.4195 3.93189 14.5805 3.93189 14.73 3.98007C14.77 3.99007 14.84 4.03007 15 4.16007C15.16 4.30007 15.36 4.49007 15.67 4.80007L15.91 5.05007L16.16 5.29007C16.46 5.59007 16.66 5.79007 16.8 5.96007C16.93 6.12007 16.97 6.19007 16.98 6.23007C17.03 6.38007 17.03 6.54007 16.98 6.69007C16.9377 6.79068 16.8766 6.88231 16.8 6.96007C16.66 7.12007 16.47 7.32007 16.16 7.63007ZM11 15.0801C11 14.6801 11 14.3401 11.02 14.0601C11.05 13.7601 11.1 13.4701 11.25 13.1901C11.46 12.7701 11.81 12.4201 12.23 12.2101C12.51 12.0601 12.81 12.0101 13.1 11.9801C13.38 11.9601 13.75 11.9601 14.15 11.9601H14.85C15.25 11.9601 15.62 11.9601 15.9 11.9801C16.2 12.0101 16.49 12.0601 16.77 12.2101C17.19 12.4201 17.54 12.7701 17.75 13.1901C17.9 13.4701 17.95 13.7701 17.98 14.0601C18 14.3401 18 14.6901 18 15.0801V15.8401C18 16.2401 18 16.5801 17.98 16.8601C17.9572 17.2472 17.8348 17.6219 17.6245 17.9478C17.4143 18.2737 17.1234 18.5397 16.78 18.7201C16.48 18.8601 16.19 18.9201 15.9 18.9401C15.62 18.9601 15.25 18.9601 14.85 18.9601H14.15C13.75 18.9601 13.38 18.9601 13.1 18.9401C12.8 18.9101 12.51 18.8601 12.23 18.7101C11.8084 18.4947 11.4654 18.1517 11.25 17.7301C11.1168 17.458 11.0386 17.1624 11.02 16.8601C11 16.5801 11 16.2301 11 15.8401V15.4601V15.0801ZM14.85 17.4601H14.15C13.72 17.4601 13.44 17.4601 13.23 17.4401C13.1205 17.4406 13.0119 17.4203 12.91 17.3801C12.7677 17.308 12.6521 17.1924 12.58 17.0501C12.5398 16.9482 12.5194 16.8396 12.52 16.7301C12.5 16.5301 12.5 16.2401 12.5 15.8101V15.1101C12.5 14.6801 12.5 14.4001 12.52 14.1901C12.53 13.9901 12.56 13.9101 12.58 13.8701C12.6521 13.7278 12.7677 13.6122 12.91 13.5401C13.0118 13.4996 13.1205 13.4793 13.23 13.4801C13.43 13.4601 13.72 13.4601 14.15 13.4601H14.85C15.28 13.4601 15.56 13.4601 15.77 13.4801C15.97 13.4901 16.05 13.5201 16.09 13.5401C16.23 13.6101 16.35 13.7301 16.42 13.8701C16.44 13.9101 16.47 13.9801 16.48 14.1901C16.5 14.3901 16.5 14.6801 16.5 15.1101V15.8101C16.5 16.2401 16.5 16.5201 16.48 16.7301C16.4806 16.8396 16.4602 16.9482 16.42 17.0501C16.3479 17.1924 16.2323 17.308 16.09 17.3801C15.9881 17.4203 15.8795 17.4406 15.77 17.4401C15.57 17.4601 15.28 17.4601 14.85 17.4601ZM2 6.08007V6.84007C2 7.24007 2 7.58007 2.02 7.86007C2.04276 8.24723 2.1652 8.62194 2.37546 8.94784C2.58571 9.27373 2.87664 9.53975 3.22 9.72007C3.52 9.86007 3.81 9.92007 4.1 9.94007C4.38 9.96007 4.75 9.96007 5.15 9.96007H5.85C6.25 9.96007 6.62 9.96007 6.9 9.94007C7.28717 9.91731 7.66187 9.79487 7.98777 9.58461C8.31367 9.37436 8.57968 9.08343 8.76 8.74007C8.9 8.44007 8.96 8.15007 8.98 7.86007C9 7.58007 9 7.23007 9 6.84007V6.08007C9 5.68007 9 5.34007 8.98 5.06007C8.96137 4.75775 8.8832 4.46209 8.75 4.19007C8.53458 3.76842 8.19164 3.42548 7.77 3.21007C7.49797 3.07686 7.20232 2.9987 6.9 2.98007C6.62 2.96007 6.25 2.96007 5.85 2.96007H5.15C4.75 2.96007 4.38 2.96007 4.1 2.98007C3.71283 3.00282 3.33812 3.12527 3.01223 3.33552C2.68633 3.54578 2.42032 3.8367 2.24 4.18007C2.1 4.48007 2.04 4.77007 2.02 5.06007C2 5.34007 2 5.69007 2 6.08007ZM5.5 8.46007H5.85C6.28 8.46007 6.56 8.46007 6.77 8.44007C6.97 8.43007 7.05 8.40007 7.09 8.38007C7.2323 8.30796 7.34789 8.19236 7.42 8.05007C7.46043 7.94826 7.48081 7.8396 7.48 7.73007C7.5 7.53007 7.5 7.24007 7.5 6.81007V6.11007C7.5 5.68007 7.5 5.40007 7.48 5.19007C7.48081 5.08053 7.46043 4.97187 7.42 4.87007C7.34789 4.72777 7.2323 4.61217 7.09 4.54007C6.98813 4.49988 6.87951 4.47951 6.77 4.48007C6.57 4.46007 6.28 4.46007 5.85 4.46007H5.15C4.72 4.46007 4.44 4.46007 4.23 4.48007C4.12049 4.47951 4.01187 4.49988 3.91 4.54007C3.7677 4.61217 3.65211 4.72777 3.58 4.87007C3.53957 4.97187 3.51919 5.08053 3.52 5.19007C3.5 5.39007 3.5 5.68007 3.5 6.11007V6.81007C3.5 7.24007 3.5 7.52007 3.52 7.73007C3.53 7.93007 3.56 8.01007 3.58 8.05007C3.65 8.19007 3.77 8.31007 3.91 8.38007C3.95 8.40007 4.02 8.43007 4.23 8.44007C4.43 8.46007 4.72 8.46007 5.15 8.46007H5.5ZM2 15.0801C2 14.6801 2 14.3401 2.02 14.0601C2.05 13.7601 2.1 13.4701 2.25 13.1901C2.46 12.7701 2.81 12.4201 3.23 12.2101C3.51 12.0601 3.81 12.0101 4.1 11.9801C4.38 11.9601 4.75 11.9601 5.15 11.9601H5.85C6.25 11.9601 6.62 11.9601 6.9 11.9801C7.2 12.0101 7.49 12.0601 7.77 12.2101C8.19 12.4201 8.54 12.7701 8.75 13.1901C8.9 13.4701 8.95 13.7701 8.98 14.0601C9 14.3401 9 14.6901 9 15.0801V15.8401C9 16.2401 9 16.5801 8.98 16.8601C8.95724 17.2472 8.8348 17.6219 8.62454 17.9478C8.41429 18.2737 8.12336 18.5397 7.78 18.7201C7.48 18.8601 7.19 18.9201 6.9 18.9401C6.62 18.9601 6.25 18.9601 5.85 18.9601H5.15C4.75 18.9601 4.38 18.9601 4.1 18.9401C3.71283 18.9173 3.33812 18.7949 3.01223 18.5846C2.68633 18.3744 2.42032 18.0834 2.24 17.7401C2.10898 17.4642 2.03419 17.1651 2.02 16.8601C2 16.5801 2 16.2301 2 15.8401V15.4601V15.0801ZM5.85 17.4601H5.15C4.72 17.4601 4.44 17.4601 4.23 17.4401C4.12049 17.4406 4.01187 17.4203 3.91 17.3801C3.7677 17.308 3.65211 17.1924 3.58 17.0501C3.53957 16.9483 3.51919 16.8396 3.52 16.7301C3.5 16.5301 3.5 16.2401 3.5 15.8101V15.1101C3.5 14.6801 3.5 14.4001 3.52 14.1901C3.53 13.9901 3.56 13.9101 3.58 13.8701C3.65211 13.7278 3.7677 13.6122 3.91 13.5401C4.0118 13.4996 4.12046 13.4793 4.23 13.4801C4.43 13.4601 4.72 13.4601 5.15 13.4601H5.85C6.28 13.4601 6.56 13.4601 6.77 13.4801C6.97 13.4901 7.05 13.5201 7.09 13.5401C7.23 13.6101 7.35 13.7301 7.42 13.8701C7.44 13.9101 7.47 13.9801 7.48 14.1901C7.5 14.3901 7.5 14.6801 7.5 15.1101V15.8101C7.5 16.2401 7.5 16.5201 7.48 16.7301C7.48081 16.8396 7.46043 16.9483 7.42 17.0501C7.34789 17.1924 7.2323 17.308 7.09 17.3801C6.98813 17.4203 6.87951 17.4406 6.77 17.4401C6.57 17.4601 6.28 17.4601 5.85 17.4601Z" fill="#71AAEB"/>
</g>
</svg>
