<svg width="20" height="20" viewBox="0 0 20 20" fill="none" xmlns="http://www.w3.org/2000/svg">
<g id="SVG">
<path id="Vector" d="M10 1.48999C11.1162 1.48999 12.2215 1.70985 13.2528 2.13701C14.2841 2.56418 15.2211 3.19028 16.0104 3.97958C16.7997 4.76888 17.4258 5.70591 17.853 6.73718C18.2801 7.76845 18.5 8.87375 18.5 9.98999C18.5 11.1062 18.2801 12.2115 17.853 13.2428C17.4258 14.2741 16.7997 15.2111 16.0104 16.0004C15.2211 16.7897 14.2841 17.4158 13.2528 17.843C12.2215 18.2701 11.1162 18.49 10 18.49C7.74566 18.49 5.58365 17.5945 3.98959 16.0004C2.39553 14.4063 1.5 12.2443 1.5 9.98999C1.5 7.73565 2.39553 5.57364 3.98959 3.97958C5.58365 2.38552 7.74566 1.48999 10 1.48999ZM10 2.98999C9.08075 2.98999 8.1705 3.17105 7.32122 3.52283C6.47194 3.87462 5.70026 4.39023 5.05025 5.04024C4.40024 5.69025 3.88463 6.46193 3.53284 7.31121C3.18106 8.16049 3 9.07074 3 9.98999C3 10.9092 3.18106 11.8195 3.53284 12.6688C3.88463 13.5181 4.40024 14.2897 5.05025 14.9397C5.70026 15.5897 6.47194 16.1054 7.32122 16.4571C8.1705 16.8089 9.08075 16.99 10 16.99C11.8565 16.99 13.637 16.2525 14.9497 14.9397C16.2625 13.627 17 11.8465 17 9.98999C17 8.13347 16.2625 6.353 14.9497 5.04024C13.637 3.72749 11.8565 2.98999 10 2.98999ZM13.07 12.05C13.37 12.33 13.37 12.81 13.09 13.11C12.8366 13.3632 12.5508 13.5818 12.24 13.76C11.5642 14.169 10.79 14.3868 10 14.39C9.21005 14.3868 8.43581 14.169 7.76 13.76C7.44923 13.5818 7.16341 13.3632 6.91 13.11C6.78256 12.9727 6.71111 12.7927 6.70972 12.6053C6.70833 12.418 6.77709 12.2369 6.90248 12.0978C7.02787 11.9586 7.2008 11.8714 7.38726 11.8533C7.57371 11.8352 7.76019 11.8875 7.91 12L8.11 12.18C8.64541 12.617 9.30931 12.8664 10 12.89C10.6985 12.8916 11.3737 12.6392 11.9 12.18L12 12.08C12.0678 12.0069 12.1495 11.9481 12.2402 11.907C12.331 11.8659 12.4291 11.8433 12.5287 11.8405C12.6283 11.8377 12.7275 11.8548 12.8204 11.8908C12.9134 11.9267 12.9982 11.9809 13.07 12.05ZM7.62 7.23999C7.77665 7.2252 7.93466 7.2433 8.08392 7.29311C8.23317 7.34292 8.37038 7.42336 8.48675 7.52926C8.60312 7.63517 8.69609 7.76421 8.75971 7.90812C8.82332 8.05203 8.85618 8.20764 8.85618 8.36499C8.85618 8.52234 8.82332 8.67795 8.75971 8.82186C8.69609 8.96578 8.60312 9.09482 8.48675 9.20072C8.37038 9.30662 8.23317 9.38706 8.08392 9.43687C7.93466 9.48668 7.77665 9.50478 7.62 9.48999C7.33993 9.46356 7.0798 9.33361 6.89045 9.12555C6.70111 8.9175 6.59618 8.6463 6.59618 8.36499C6.59618 8.08368 6.70111 7.81248 6.89045 7.60443C7.0798 7.39637 7.33993 7.26642 7.62 7.23999ZM12.37 7.23999C12.5267 7.2252 12.6847 7.2433 12.8339 7.29311C12.9832 7.34292 13.1204 7.42336 13.2367 7.52926C13.3531 7.63517 13.4461 7.76421 13.5097 7.90812C13.5733 8.05203 13.6062 8.20764 13.6062 8.36499C13.6062 8.52234 13.5733 8.67795 13.5097 8.82186C13.4461 8.96578 13.3531 9.09482 13.2367 9.20072C13.1204 9.30662 12.9832 9.38706 12.8339 9.43687C12.6847 9.48668 12.5267 9.50478 12.37 9.48999C12.0899 9.46356 11.8298 9.33361 11.6405 9.12555C11.4511 8.9175 11.3462 8.6463 11.3462 8.36499C11.3462 8.08368 11.4511 7.81248 11.6405 7.60443C11.8298 7.39637 12.0899 7.26642 12.37 7.23999Z" fill="#71AAEB"/>
</g>
</svg>
