<svg width="20" height="20" viewBox="0 0 20 20" fill="none" xmlns="http://www.w3.org/2000/svg">
<g id="SVG">
<path id="Vector" fill-rule="evenodd" clip-rule="evenodd" d="M5.84 15.62C7.0425 16.5145 8.50129 16.9976 10 16.9976C11.4987 16.9976 12.9575 16.5145 14.16 15.62C12.8993 14.8778 11.463 14.4864 10 14.4864C8.53704 14.4864 7.10072 14.8778 5.84 15.62ZM4.7 14.56C3.82421 13.5449 3.25834 12.2997 3.06967 10.9724C2.88099 9.64506 3.07745 8.29147 3.63568 7.07256C4.19391 5.85364 5.09043 4.82067 6.21865 4.09646C7.34687 3.37224 8.65934 2.98724 10 2.98724C11.3407 2.98724 12.6531 3.37224 13.7813 4.09646C14.9096 4.82067 15.8061 5.85364 16.3643 7.07256C16.9226 8.29147 17.119 9.64506 16.9303 10.9724C16.7417 12.2997 16.1758 13.5449 15.3 14.56C13.7236 13.5316 11.8821 12.984 10 12.984C8.11785 12.984 6.27636 13.5316 4.7 14.56ZM10 1.48999C8.88376 1.48999 7.77846 1.70985 6.74719 2.13701C5.71592 2.56418 4.77889 3.19028 3.98959 3.97958C3.20029 4.76888 2.57419 5.70591 2.14702 6.73718C1.71986 7.76845 1.5 8.87375 1.5 9.98999C1.5 11.1062 1.71986 12.2115 2.14702 13.2428C2.57419 14.2741 3.20029 15.2111 3.98959 16.0004C4.77889 16.7897 5.71592 17.4158 6.74719 17.843C7.77846 18.2701 8.88376 18.49 10 18.49C12.2543 18.49 14.4163 17.5945 16.0104 16.0004C17.6045 14.4063 18.5 12.2443 18.5 9.98999C18.5 7.73565 17.6045 5.57364 16.0104 3.97958C14.4163 2.38552 12.2543 1.48999 10 1.48999ZM8.5 8.48999C8.5 8.88781 8.65804 9.26935 8.93934 9.55065C9.22064 9.83195 9.60218 9.98999 10 9.98999C10.3978 9.98999 10.7794 9.83195 11.0607 9.55065C11.342 9.26935 11.5 8.88781 11.5 8.48999C11.5 8.09217 11.342 7.71063 11.0607 7.42933C10.7794 7.14803 10.3978 6.98999 10 6.98999C9.60218 6.98999 9.22064 7.14803 8.93934 7.42933C8.65804 7.71063 8.5 8.09217 8.5 8.48999ZM10 5.48999C9.60603 5.48999 9.21593 5.56759 8.85195 5.71835C8.48797 5.86912 8.15726 6.09009 7.87868 6.36867C7.6001 6.64725 7.37913 6.97796 7.22836 7.34194C7.0776 7.70592 7 8.09602 7 8.48999C7 8.88396 7.0776 9.27406 7.22836 9.63804C7.37913 10.002 7.6001 10.3327 7.87868 10.6113C8.15726 10.8899 8.48797 11.1109 8.85195 11.2616C9.21593 11.4124 9.60603 11.49 10 11.49C10.7956 11.49 11.5587 11.1739 12.1213 10.6113C12.6839 10.0487 13 9.28564 13 8.48999C13 7.69434 12.6839 6.93128 12.1213 6.36867C11.5587 5.80606 10.7956 5.48999 10 5.48999Z" fill="#71AAEB"/>
</g>
</svg>
