<svg width="20" height="20" viewBox="0 0 20 20" fill="none" xmlns="http://www.w3.org/2000/svg">
<g id="SVG">
<path id="Vector" fill-rule="evenodd" clip-rule="evenodd" d="M10.37 1.98999H11.68C12.63 1.98999 13.39 1.98999 14.01 2.03999C14.64 2.08999 15.18 2.19999 15.68 2.44999C16.4811 2.85769 17.1323 3.5089 17.54 4.30999C17.79 4.80999 17.9 5.34999 17.94 5.97999C18 6.58999 18 7.34999 18 8.30999V11.67C18 12.63 18 13.39 17.95 14C17.9248 14.5782 17.7854 15.1458 17.54 15.67C17.1323 16.4711 16.4811 17.1223 15.68 17.53C15.18 17.78 14.64 17.89 14.01 17.94C13.39 17.99 12.63 17.99 11.68 17.99H8.32C7.36 17.99 6.6 17.99 5.99 17.94C5.41175 17.9148 4.8442 17.7754 4.32 17.53C3.51891 17.1223 2.8677 16.4711 2.46 15.67C2.21458 15.1458 2.07524 14.5782 2.05 14C2 13.39 2 12.62 2 11.67V8.30999C2 7.34999 2 6.58999 2.05 5.97999C2.1 5.34999 2.21 4.80999 2.46 4.30999C2.8677 3.5089 3.51891 2.85769 4.32 2.44999C4.82 2.19999 5.36 2.08999 5.99 2.03999C6.6 1.98999 7.36 1.98999 8.32 1.98999H10.37ZM5 3.78999C5.23 3.66999 5.51 3.58999 5.96 3.54999C5.59362 3.99381 5.32142 4.50758 5.16 5.05999C5 5.63999 5 6.31999 5 7.35999V13.06C5 13.69 5 14.1 5.06 14.46C5.18484 15.1834 5.4949 15.8621 5.96 16.43C5.62784 16.4105 5.30225 16.3291 5 16.19C4.48349 15.9265 4.06349 15.5065 3.8 14.99C3.64124 14.6407 3.55289 14.2635 3.54 13.88C3.5 13.33 3.5 12.63 3.5 11.64V8.33999C3.5 7.33999 3.5 6.63999 3.54 6.09999C3.59 5.55999 3.67 5.23999 3.8 4.99999C4.06179 4.47977 4.48197 4.05608 5 3.78999ZM8.8 16.45C9.01 16.49 9.28 16.49 10.01 16.49H11.66C12.66 16.49 13.36 16.49 13.9 16.44C14.2795 16.4295 14.6532 16.3445 15 16.19C15.5165 15.9265 15.9365 15.5065 16.2 14.99C16.33 14.74 16.41 14.42 16.46 13.88C16.5 13.33 16.5 12.63 16.5 11.64V8.33999C16.5 7.33999 16.5 6.63999 16.46 6.09999C16.4463 5.71982 16.358 5.34605 16.2 4.99999C15.9382 4.47977 15.518 4.05608 15 3.78999C14.6505 3.63173 14.2734 3.5434 13.89 3.52999C13.34 3.48999 12.64 3.48999 11.65 3.48999H10.5C9.28 3.48999 8.84 3.48999 8.49 3.58999C8.03908 3.71921 7.6287 3.96162 7.29789 4.29418C6.96708 4.62674 6.72684 5.03839 6.6 5.48999C6.5 5.83999 6.49 6.28999 6.49 7.49999V12.99C6.49 13.72 6.49 13.99 6.53 14.2C6.62558 14.762 6.89344 15.2804 7.29653 15.6835C7.69962 16.0866 8.21801 16.3544 8.78 16.45H8.8ZM11.55 7.11999L11.58 7.13999L13.42 8.22999L13.45 8.23999C13.75 8.41999 14.02 8.57999 14.23 8.72999C14.43 8.87999 14.67 9.07999 14.8 9.37999C14.97 9.76999 14.97 10.21 14.8 10.6C14.67 10.9 14.43 11.1 14.23 11.25C14.03 11.4 13.75 11.55 13.45 11.74L13.42 11.75L11.58 12.84L11.55 12.86C11.25 13.03 10.98 13.19 10.75 13.3C10.52 13.4 10.22 13.52 9.89 13.48C9.67244 13.4591 9.46183 13.392 9.27217 13.2834C9.08251 13.1748 8.91815 13.027 8.79 12.85C8.6301 12.6055 8.54019 12.3219 8.53 12.03C8.51 11.78 8.51 11.46 8.51 11.11V8.86999C8.51 8.50999 8.51 8.19999 8.53 7.94999C8.56 7.69999 8.61 7.39999 8.8 7.12999C8.92706 6.95412 9.08984 6.80709 9.27768 6.69852C9.46552 6.58995 9.67419 6.52229 9.89 6.49999C10.22 6.45999 10.52 6.56999 10.75 6.67999C10.98 6.77999 11.25 6.94999 11.55 7.11999ZM10 7.88999C9.98112 7.89573 9.96395 7.90603 9.95 7.91999C9.93871 7.97264 9.93202 8.02618 9.93 8.07999C9.91 8.25999 9.91 8.51999 9.91 8.90999V11.09C9.91 11.49 9.91 11.74 9.93 11.92C9.93164 11.9738 9.93834 12.0274 9.95 12.08C9.96366 12.0943 9.98094 12.1047 10 12.11C10.0377 12.0958 10.0745 12.0791 10.11 12.06C10.27 11.99 10.48 11.86 10.82 11.66L12.67 10.58L13.37 10.15C13.4059 10.1193 13.4393 10.0859 13.47 10.05C13.4794 10.0173 13.4794 9.98265 13.47 9.94999C13.4393 9.91409 13.4059 9.88065 13.37 9.84999C13.1425 9.69731 12.909 9.55387 12.67 9.41999L10.82 8.32999L10.12 7.92999C10.0808 7.91423 10.0408 7.90088 10 7.88999Z" fill="#71AAEB"/>
</g>
</svg>
