<svg width="137" height="24" viewBox="0 0 137 24" fill="none" xmlns="http://www.w3.org/2000/svg">
<path fill-rule="evenodd" clip-rule="evenodd" d="M67.5002 12.4992C67.5002 15.839 65.0705 17.9988 61.6208 17.9988C58.1712 17.9988 55.7414 15.839 55.7414 12.4992C55.7414 9.15938 58.1712 6.99951 61.6208 6.99951C65.0705 6.99951 67.5002 9.15938 67.5002 12.4992ZM58.2812 12.4992C58.2812 14.569 59.631 15.9989 61.6208 15.9989C63.6106 15.9989 64.9605 14.569 64.9605 12.4992C64.9605 10.4293 63.6106 9.04938 61.6208 9.04938C59.631 9.04938 58.2812 10.4293 58.2812 12.4992ZM41.2529 12.2892C42.2028 11.8492 42.8128 11.1093 42.8128 9.95933C42.8128 8.22943 41.2329 6.99951 38.9432 6.99951H33.6737V17.9988H39.1731C41.5429 17.9988 43.1927 16.7089 43.1927 14.949C43.1927 13.6191 42.3228 12.6292 41.2529 12.2892ZM36.1035 9.00939H38.9332C39.7831 9.00939 40.373 9.50935 40.373 10.2093C40.373 10.9093 39.7731 11.4092 38.9332 11.4092H36.1035V8.99939V9.00939ZM39.1731 15.9989H36.1135V13.2991H39.1731C40.133 13.2991 40.763 13.8491 40.763 14.659C40.763 15.459 40.133 15.9889 39.1731 15.9889V15.9989ZM52.3418 17.9988H55.5315L50.472 12.2892L55.1115 6.99951H52.2118L48.5322 11.2692H47.9322V6.99951H45.5025V17.9988H47.9422V13.6191H48.5322L52.3318 17.9988H52.3418ZM76.9692 6.99951V11.3392H72.0398V6.99951H69.6V17.9988H72.0298V13.5591H76.9592V17.9988H79.389V6.99951H76.9592H76.9692ZM87.3982 17.9988H84.9584V9.21937H81.1588V6.99951H91.1978V9.21937H87.3982V17.9988ZM97.0972 6.99951C94.9574 6.99951 93.0776 7.88946 92.5276 9.79934L94.7674 10.1693C94.9795 9.7752 95.2983 9.44888 95.6874 9.22779C96.0765 9.0067 96.5201 8.89981 96.9672 8.91939C98.2971 8.91939 99.087 9.81934 99.187 11.2492H96.8172C93.5875 11.2492 91.9777 12.6692 91.9777 14.699C91.9777 16.7489 93.5675 17.9988 95.8073 17.9988C97.6071 17.9988 98.807 17.1789 99.3369 16.2689L99.8369 17.9988H101.637V11.8192C101.637 8.62941 99.9069 6.99951 97.0972 6.99951ZM96.3772 16.1589C95.1874 16.1589 94.4274 15.549 94.4274 14.589C94.4274 13.7491 95.0474 13.1591 96.9072 13.1591H99.207C99.207 14.959 98.0671 16.1589 96.3772 16.1589ZM114.225 17.9988H111.026L107.226 13.6191H106.626V17.9988H104.206V6.99951H106.636V11.2692H107.226L110.896 6.99951H113.795L109.166 12.2892L114.215 17.9988H114.225ZM118.495 17.9988H120.935V9.21937H124.734V6.99951H114.695V9.21937H118.495V17.9988ZM130.794 6.99951C134.123 6.99951 136.493 9.19937 136.493 12.3692C136.493 12.6692 136.473 12.9191 136.453 13.1591H127.614C127.844 14.849 129.074 15.9889 130.934 15.9889C132.224 15.9889 133.233 15.439 133.763 14.659L136.053 15.039C135.223 17.1389 133.073 17.9988 130.784 17.9988C127.444 17.9988 125.074 15.819 125.074 12.4992C125.074 9.17938 127.444 6.99951 130.784 6.99951H130.794ZM133.853 11.2492C133.671 10.5827 133.268 9.99747 132.711 9.58894C132.154 9.18041 131.474 8.97262 130.784 8.99939C130.099 8.97319 129.426 9.18212 128.877 9.59143C128.327 10.0007 127.935 10.5858 127.764 11.2492H133.853Z" fill="#E1E3E6"/>
<path d="M12.0059 23.9985H13.0058C18.4452 23.9985 21.155 23.9985 22.8348 22.3186C24.5046 20.6387 24.5046 17.9189 24.5046 12.4992V11.4793C24.5046 6.07962 24.5046 3.35979 22.8348 1.67989C21.155 0 18.4352 0 13.0058 0H12.0059C6.56646 0 3.85673 0 2.17691 1.67989C0.50708 3.35979 0.50708 6.07962 0.50708 11.4993V12.5192C0.50708 17.9189 0.50708 20.6387 2.18691 22.3186C3.86673 23.9985 6.58645 23.9985 12.0059 23.9985Z" fill="#0077FF"/>
<path d="M13.2757 17.2889C7.80631 17.2889 4.68663 13.5392 4.55664 7.29956H7.29636C7.38635 11.8793 9.40614 13.8192 11.006 14.2191V7.29956H13.5857V11.2493C15.1655 11.0793 16.8254 9.27944 17.3853 7.29956H19.9651C19.7541 8.32638 19.3335 9.29862 18.7296 10.1555C18.1257 11.0123 17.3515 11.7353 16.4554 12.2792C17.4556 12.7763 18.3391 13.4798 19.0475 14.3433C19.7559 15.2069 20.2731 16.2108 20.565 17.2889H17.7253C17.4632 16.3525 16.9307 15.5143 16.1943 14.8792C15.4579 14.2442 14.5505 13.8407 13.5857 13.7192V17.2889H13.2757Z" fill="white"/>
</svg>
